<svg width="60" height="38" viewBox="0 0 60 38" fill="none" xmlns="http://www.w3.org/2000/svg">
<g clip-path="url(#clip0_404_21243)">
<path d="M42.2076 11.218C42.2119 11.194 42.2155 11.1681 42.2216 11.1434C42.2173 11.1674 42.2119 11.194 42.2076 11.218Z" fill="#A5AC33"/>
<path d="M42.1877 12.6915C42.1638 12.556 42.1493 12.4172 42.141 12.2784C42.0851 12.3286 42.0405 12.3933 42.0122 12.4811C41.7649 12.3901 41.5158 12.2997 41.2685 12.2086C41.1491 11.8638 41.4978 11.9875 41.6134 11.8797C41.6687 11.8277 41.7893 11.8312 41.8 11.735C41.8124 11.6075 41.6942 11.5806 41.6059 11.5434C41.0079 11.2985 40.9783 11.812 40.7827 12.1303C40.5777 12.458 40.6319 12.6447 41.0165 12.7211C41.0273 12.7522 41.0381 12.7834 41.0489 12.8146C41.0285 12.8586 41.0075 12.9008 40.9871 12.9449C40.7925 13.3265 40.9706 13.4538 41.3411 13.4652C41.5042 13.4704 41.6751 13.4133 41.8305 13.5053C41.8867 13.6194 41.8715 13.7931 42.0353 13.8186C42.2054 13.8439 42.2701 13.6921 42.3119 13.5708C42.3377 13.4941 42.3743 13.4362 42.4177 13.3863C42.3153 13.1691 42.2365 12.9355 42.1921 12.6921L42.1877 12.6915Z" fill="#A5AC33"/>
<path d="M42.1359 11.9248C42.1365 11.9082 42.137 11.8916 42.1375 11.8749C42.137 11.8916 42.1365 11.9082 42.1359 11.9248Z" fill="#A5AC33"/>
<path d="M42.4999 13.5509C42.4942 13.5406 42.4885 13.5302 42.4828 13.5199C42.4866 13.5309 42.4942 13.5406 42.4999 13.5509Z" fill="#A5AC33"/>
<path d="M44.8076 14.8924C44.8076 14.8924 44.8176 14.891 44.822 14.8915C44.8182 14.8928 44.812 14.8929 44.8076 14.8924Z" fill="#A5AC33"/>
<path d="M42.6663 13.8138C42.6587 13.804 42.653 13.7937 42.6455 13.784C42.653 13.7937 42.6587 13.804 42.6663 13.8138Z" fill="#A5AC33"/>
<path d="M39.4565 12.7167C39.5608 12.8183 39.7086 12.7794 39.7947 12.6408C39.8944 12.481 39.7506 12.3561 39.7075 12.2314C39.6573 12.0865 39.5086 12.1893 39.4031 12.2176C39.1667 12.2789 39.0709 12.4682 38.9443 12.7256C39.1566 12.7035 39.2951 12.559 39.4547 12.7174L39.4565 12.7167Z" fill="#A5AC33"/>
<path d="M47.1412 17.3916C46.9771 17.3231 46.8451 17.1778 46.945 16.946C47.0086 16.8028 46.9031 16.7099 46.7701 16.719C46.6065 16.7305 46.4412 16.7733 46.2903 16.8337C46.228 16.8594 46.28 16.9914 46.3306 16.9923C46.7324 17.0094 46.6617 17.3378 46.7511 17.578C46.6205 17.5575 46.506 17.5293 46.3922 17.5215C46.1141 17.5048 45.7508 17.5566 45.6721 17.7708C45.6031 17.959 45.7708 17.9954 45.9335 18.048C45.5639 18.2026 45.1937 18.3554 44.8234 18.5082C45.6829 18.1532 46.5418 17.7963 47.3931 17.4174C47.3582 17.4315 47.3258 17.4469 47.2915 17.4628C47.2489 17.4365 47.1988 17.4128 47.1399 17.388L47.1412 17.3916Z" fill="#A5AC33"/>
<path d="M39.0237 11.2788C39.0879 11.2525 39.1508 11.2102 39.1229 11.1295C39.1 11.0634 39.0329 11.0209 38.9644 11.0529C38.8809 11.09 38.8551 11.1729 38.8537 11.2658C38.9023 11.3455 38.967 11.3025 39.0237 11.2788Z" fill="#A5AC33"/>
<path d="M40.6171 11.4523C40.6741 11.3627 40.7323 11.2768 40.6381 11.1862C40.574 11.1221 40.4745 11.0949 40.4049 11.1478C40.0478 11.4173 39.5514 11.472 39.2525 11.861C39.9012 12.0165 40.3458 11.879 40.6177 11.4541L40.6171 11.4523Z" fill="#A5AC33"/>
<path d="M40.2441 13.2308C40.5236 13.2697 40.6359 13.1404 40.6931 12.8638C40.4297 12.9016 40.2953 13.0036 40.2441 13.2308Z" fill="#A5AC33"/>
<path d="M40.9765 13.9366C41.0256 14.1209 41.1869 14.0239 41.3366 13.9967C41.3831 13.9252 41.5901 13.9665 41.5411 13.8007C41.4921 13.6348 41.3311 13.6782 41.2033 13.7204C41.0948 13.758 40.9395 13.7994 40.9746 13.9372L40.9765 13.9366Z" fill="#A5AC33"/>
<path d="M39.3831 11.0764C39.6682 11.1255 39.9057 10.916 40.1637 11.0259C39.8529 10.7391 39.7673 10.7462 39.3831 11.0764Z" fill="#A5AC33"/>
<path d="M42.1583 11.572C42.1607 11.5485 42.1637 11.527 42.1661 11.5036C42.1631 11.5251 42.1607 11.5485 42.1583 11.572Z" fill="#A5AC33"/>
<path d="M32.9667 10.3376C32.9667 10.3376 32.9729 10.3375 32.9773 10.338C32.9736 10.3393 32.971 10.3381 32.9667 10.3376Z" fill="#A5AC33"/>
<path d="M32.1897 10.356C32.1897 10.356 32.204 10.3551 32.2103 10.355C32.204 10.3551 32.1959 10.3559 32.1897 10.356Z" fill="#A5AC33"/>
<path d="M5.65315 31.9033C5.68998 31.7858 5.72995 31.6713 5.77179 31.5562C5.72995 31.6713 5.69061 31.7876 5.65315 31.9033Z" fill="#A5AC33"/>
<path d="M11.7949 19.9096C12.1166 19.4531 12.4502 19.007 12.7951 18.5692C12.4483 19.0076 12.1166 19.4531 11.7949 19.9096Z" fill="#A5AC33"/>
<path d="M31.3988 10.3648C31.4131 10.3639 31.4281 10.3649 31.4425 10.364C31.4281 10.3649 31.4131 10.3639 31.3988 10.3648Z" fill="#A5AC33"/>
<path d="M47.9652 17.1639C47.8356 17.2252 47.7034 17.2853 47.5732 17.3448C47.7034 17.2853 47.8356 17.2252 47.9652 17.1639Z" fill="#A5AC33"/>
<path d="M29.1124 10.3798C29.6396 10.3719 30.1675 10.372 30.6948 10.3702C30.1675 10.372 29.6396 10.3719 29.1124 10.3798Z" fill="#A5AC33"/>
<path d="M42.9813 14.1792C42.9813 14.1792 42.9688 14.1671 42.9618 14.1592C42.9681 14.1653 42.9744 14.1713 42.9813 14.1792Z" fill="#A5AC33"/>
<path d="M25.6253 28.7773C25.4316 28.8896 25.2354 29.0006 25.0411 29.111C25.2354 29.0006 25.4316 28.8896 25.6253 28.7773Z" fill="#A5AC33"/>
<path d="M30.6867 15.6601C30.577 15.694 30.4698 15.7352 30.3631 15.7721C30.1288 15.8759 29.9001 15.8688 29.6444 15.8381C29.365 15.8055 29.045 15.565 28.7789 15.8913C28.5201 16.0877 28.2631 16.2834 28.0043 16.4798C27.7971 16.6132 27.5902 16.8204 27.7419 17.0226C27.847 17.1628 28.0996 16.985 28.2614 16.8653C28.3149 16.8263 28.3728 16.7939 28.4295 16.7578C28.5585 16.7132 28.6876 16.6685 28.8148 16.6244C29.335 16.3602 29.7842 15.9212 30.4298 15.9586C30.5696 15.9451 30.7101 15.9334 30.85 15.9199C30.8973 15.7721 31.0846 15.5388 30.688 15.6576L30.6867 15.6601Z" fill="#A5AC33"/>
<path d="M30.8481 15.9206L30.8469 15.9231L30.8488 15.9224L30.8481 15.9206Z" fill="#A5AC33"/>
<path d="M28.4597 18.9329C28.5428 18.9431 28.5888 18.8882 28.5771 18.8121C28.5526 18.6748 28.4495 18.6797 28.3422 18.7024C28.3384 18.8003 28.3128 18.9139 28.4597 18.9329Z" fill="#A5AC33"/>
<path d="M24.102 29.6415C23.9369 29.7336 23.7725 29.8274 23.6087 29.917C23.7737 29.825 23.9388 29.7329 24.102 29.6415Z" fill="#A5AC33"/>
<path d="M5.61676 34.5636C5.59711 34.5129 5.57683 34.4603 5.55965 34.4047C5.57806 34.4579 5.59648 34.5111 5.61676 34.5636Z" fill="#A5AC33"/>
<path d="M23.5571 20.3281C23.5701 20.644 23.6093 20.842 23.8907 20.8802C23.9087 20.648 23.7793 20.51 23.5571 20.3281Z" fill="#A5AC33"/>
<path d="M25.4709 13.5424C25.292 13.6126 25.1609 13.736 25.1051 13.9258C25.2093 14.1301 25.3765 13.9715 25.5071 13.9859C25.7159 14.0081 25.7645 13.8639 25.7279 13.6917C25.6997 13.5618 25.6124 13.4852 25.4703 13.5406L25.4709 13.5424Z" fill="#A5AC33"/>
<path d="M26.581 14.8671C26.4402 14.9446 26.4261 15.0974 26.4513 15.2427C26.4661 15.328 26.5657 15.3736 26.6472 15.3187C26.7817 15.229 26.8453 15.092 26.8013 14.9347C26.7764 14.8447 26.6957 14.8172 26.581 14.8671Z" fill="#A5AC33"/>
<path d="M20.1657 13.8712C19.9177 13.8749 19.7501 13.8446 19.6562 14.0271C19.6463 14.0469 19.6985 14.1192 19.7374 14.1407C19.956 14.2519 20.0301 14.0846 20.1663 13.8731L20.1657 13.8712Z" fill="#A5AC33"/>
<path d="M21.5822 14.0361C21.5865 14.012 21.672 13.9989 21.7206 13.982C21.8659 14.0509 22.0214 14.0279 21.9698 13.8547C21.8947 13.6137 21.7021 13.8077 21.5585 13.8225C21.2706 13.9529 20.917 13.9542 20.7259 14.2976C20.9771 14.0792 21.452 14.7673 21.5822 14.0361Z" fill="#A5AC33"/>
<path d="M26.082 13.45C25.9607 13.5351 25.8317 13.7072 25.9504 13.8263C26.181 14.0566 26.4014 13.8037 26.7527 13.7416C26.4545 13.5881 26.3895 13.2368 26.0839 13.4494L26.082 13.45Z" fill="#A5AC33"/>
<path d="M24.5677 13.7893C24.8334 13.6008 25.2991 13.53 25.207 13.0402C25.0134 13.0497 24.8065 13.0268 24.6212 13.0786C24.3723 13.1463 24.0901 13.281 24.096 13.5644C24.1024 13.8066 24.4588 13.8681 24.5658 13.79L24.5677 13.7893Z" fill="#A5AC33"/>
<path d="M25.687 16.7747C25.551 16.8176 25.5647 16.9115 25.5691 16.9243C25.6715 17.2565 25.8102 17.2455 25.966 17.1813C26.0701 17.1371 26.1453 17.0699 26.0554 16.9614C25.9641 16.8492 25.8641 16.7175 25.687 16.7747Z" fill="#A5AC33"/>
<path d="M30.895 11.2273C31.0079 11.1841 31.1376 11.1412 31.1412 11.0065C31.1455 10.777 30.9339 10.9221 30.8343 10.8642C30.7572 10.8169 30.7026 10.768 30.7052 10.6727C30.7111 10.5022 30.6137 10.4085 30.4584 10.45C30.2251 10.5143 30.3547 10.683 30.3805 10.8241C30.4109 10.8937 30.4339 10.9781 30.478 11.045C30.5762 11.1836 30.6912 11.304 30.895 11.2273Z" fill="#A5AC33"/>
<path d="M31.1888 12.0335C31.0184 12.1705 30.9745 12.3706 31.0256 12.5665C31.0607 12.6981 31.2085 12.7681 31.3537 12.7035C31.5463 12.6184 31.6293 12.4828 31.5343 12.263C31.4666 12.1037 31.3805 12.0123 31.1876 12.0359L31.1888 12.0335Z" fill="#A5AC33"/>
<path d="M21.858 16.6602C21.7538 16.6799 21.748 16.7661 21.7547 16.8521C21.7738 16.9194 21.8048 16.9847 21.8884 16.9599C21.982 16.9336 22.0159 16.8562 21.9998 16.7672C21.9869 16.6937 21.931 16.6473 21.858 16.6602Z" fill="#A5AC33"/>
<path d="M24.4263 14.5367C24.2323 14.5874 24.069 14.6665 24.1085 14.9076C24.1169 14.956 24.1353 15.003 24.1499 15.0514C24.2135 15.0294 24.2771 15.0073 24.3394 14.9817C24.5108 14.908 24.6138 14.7819 24.5909 14.5947C24.5805 14.5162 24.4912 14.5183 24.4257 14.5348L24.4263 14.5367Z" fill="#A5AC33"/>
<path d="M32.8234 11.4122C32.7909 11.4152 32.7598 11.4342 32.728 11.4452L32.7267 11.4415C32.6631 11.4635 32.5951 11.4789 32.5359 11.5076C32.4313 11.5623 32.2119 11.4308 32.2206 11.6434C32.2305 11.8475 32.4413 11.7909 32.5819 11.8039C32.6645 11.8123 32.7513 11.8151 32.8318 11.7995C33.0927 11.7544 33.0388 11.3869 33.3034 11.3405C33.2895 11.3124 33.2837 11.2713 33.2624 11.2582C33.0593 11.1436 32.9814 11.3965 32.8209 11.411L32.8234 11.4122Z" fill="#A5AC33"/>
<path d="M27.2938 14.3061C27.2329 14.3662 27.2266 14.4629 27.3175 14.5197C27.5532 14.6682 27.7625 14.5649 27.9634 14.3948C27.7249 14.4198 27.5485 14.0557 27.2938 14.3061Z" fill="#A5AC33"/>
<path d="M22.8467 15.2683C22.9777 15.2292 22.9796 15.132 22.9391 15.0269C22.8947 14.9108 22.8052 14.8883 22.693 14.9272C22.5789 14.9728 22.5256 15.0488 22.59 15.1621C22.6442 15.2583 22.7382 15.2998 22.8486 15.2677L22.8467 15.2683Z" fill="#A5AC33"/>
<path d="M22.2247 22.8207C22.2902 22.7919 22.3412 22.7517 22.3226 22.6739C22.3067 22.6096 22.2688 22.5364 22.1897 22.5802C22.1417 22.6051 22.0977 22.6778 22.093 22.7308C22.0866 22.8028 22.1443 22.8424 22.2247 22.8207Z" fill="#A5AC33"/>
<path d="M29.5302 23.4777C29.6591 23.3899 29.6646 23.2545 29.6195 23.1243C29.5966 23.0583 29.5272 23.0392 29.4455 23.0633C29.3455 23.1678 29.3462 23.3031 29.3694 23.4306C29.3843 23.5159 29.4742 23.5155 29.5302 23.4777Z" fill="#A5AC33"/>
<path d="M14.797 17.4962C14.9264 17.398 14.8383 17.2888 14.8059 17.1891C14.7716 17.0839 14.7289 16.9426 14.5707 17.0179C14.4218 17.09 14.4993 17.2172 14.5367 17.3192C14.5761 17.433 14.6466 17.5216 14.797 17.4962Z" fill="#A5AC33"/>
<path d="M26.2237 25.296C26.2455 25.4076 26.3051 25.4588 26.4267 25.4167C26.5614 25.3701 26.6766 25.2912 26.6245 25.1347C26.5845 25.0191 26.4592 24.9598 26.3468 24.974C26.1302 25.0018 26.2774 25.185 26.2237 25.296Z" fill="#A5AC33"/>
<path d="M27.2966 10.4415C27.4815 10.4309 27.6645 10.4209 27.85 10.4122C27.3072 10.4357 26.7645 10.4716 26.2251 10.5289C26.393 10.5119 26.561 10.4948 26.7302 10.4814C26.9125 10.5601 27.1051 10.4934 27.2966 10.4415Z" fill="#A5AC33"/>
<path d="M35.2811 10.2882C35.3304 10.3882 35.4883 10.2576 35.5969 10.2384C35.8039 10.1586 35.9002 10.4066 36.0832 10.3906C36.1265 10.3221 36.1787 10.2733 36.2372 10.2366C36.1787 10.2733 36.1265 10.3221 36.0832 10.3906C36.1767 10.4671 36.3415 10.4531 36.3761 10.6075C36.1677 10.653 35.9593 10.6984 35.7334 10.7478C35.9273 11.0053 36.1385 10.9014 36.3468 10.8313C36.5605 10.9648 36.777 10.9001 36.9921 10.8257C37.0473 10.8764 37.102 10.9252 37.1572 10.9759C37.1733 11.0587 37.192 11.155 37.055 11.1223C36.724 11.0437 36.827 11.2382 36.8691 11.3961C36.8481 11.4383 36.8277 11.4823 36.8067 11.5245C36.8505 11.6511 36.8937 11.7758 36.9375 11.9024C37.1386 11.9026 37.4281 12.0489 37.3896 11.6411C37.3722 11.5547 37.3462 11.4857 37.3116 11.434C37.2996 11.4176 37.2877 11.4012 37.2732 11.3897C37.2864 11.4037 37.2996 11.4176 37.3116 11.434C37.3462 11.4857 37.3722 11.5547 37.3896 11.6411C37.4789 11.5301 37.3858 11.4124 37.4046 11.3032C37.4597 10.9904 37.6222 10.7821 37.9611 10.9503C38.1403 11.0382 38.2782 11.0192 38.4403 10.9549C38.6192 10.8848 38.7171 10.7441 38.7168 10.5675C38.7168 10.3498 38.5188 10.3649 38.3764 10.3588C38.1214 10.3484 37.9929 10.2738 38.1201 10.0059C38.1045 10.0092 38.0889 10.0125 38.074 10.0177C38.0889 10.0125 38.1039 10.0074 38.1201 10.0059C38.41 10.1109 38.5639 9.82347 38.7967 9.76962C38.9365 9.75612 39.0745 9.74327 39.2144 9.72977C39.2894 9.74077 39.3644 9.75177 39.4395 9.76277C39.5067 9.82373 39.5853 9.81499 39.6652 9.79146C39.9287 10.1049 40.2732 9.8295 40.5722 9.90059C40.5908 9.98454 40.595 10.0632 40.5135 10.1243C40.3704 10.2313 40.2176 10.3828 40.4139 10.5141C40.5857 10.6292 40.6558 10.4324 40.7106 10.2882C40.766 10.1396 40.8735 10.0387 41.0449 10.0677C41.6233 10.1653 41.6798 10.1108 41.5412 9.56517C41.6211 9.55394 41.7029 9.54207 41.7828 9.53084C41.6643 9.12202 42.136 9.00804 42.2205 8.70149C42.2822 8.68012 42.3414 8.65756 42.4025 8.63436C42.569 9.03067 42.6693 9.41705 42.2544 9.74348C41.9297 9.77986 41.6371 9.83599 41.7763 10.2807C41.7992 10.3468 41.7654 10.4489 41.7252 10.5141C41.6391 10.6528 41.4294 10.7973 41.542 10.9411C41.6804 11.1171 41.8754 10.9058 42.0483 10.8727C42.1332 10.8577 42.2154 10.823 42.2965 10.7909C42.5862 9.64915 43.2028 8.51961 43.775 7.61288C43.9335 7.36287 44.1065 7.11814 44.2938 6.88485C44.2312 6.86748 44.1755 6.83339 44.1406 6.75095C44.0134 6.79499 43.8844 6.83967 43.7572 6.8837C43.8844 6.83967 44.0134 6.79499 44.1406 6.75095C44.1761 6.83522 44.2319 6.86931 44.2938 6.88485C45.1171 5.86244 46.224 5.05408 47.5715 4.92245C47.6837 4.8836 47.7978 4.8441 47.91 4.80525C47.9213 4.69865 47.964 4.6161 48.0436 4.56182C47.964 4.6161 47.9213 4.69865 47.91 4.80525C47.7978 4.8441 47.6837 4.8836 47.5715 4.92245C47.612 4.91867 47.652 4.91306 47.6926 4.90928C49.3269 4.80159 50.7255 5.89495 51.2336 7.38081C52.3373 10.5995 49.3202 13.242 46.6291 14.3995C46.2315 14.57 45.8249 14.6964 45.4266 14.7562C45.3799 14.7847 45.3276 14.809 45.2639 14.8248C45.2122 14.8386 45.1597 14.8445 45.1067 14.8546C45.1246 15.0456 45.1768 15.2206 45.2858 15.3842C45.0582 15.4527 44.7876 15.6696 44.7549 15.1818C44.7481 15.0773 44.6151 14.9837 44.5084 14.8871C44.5577 14.8906 44.6065 14.8922 44.6571 14.8932C44.1167 14.8872 43.6146 14.6953 43.2023 14.3759C43.1814 14.4242 43.161 14.4744 43.1457 14.5269C43.0617 14.593 42.9778 14.659 42.8938 14.7251C42.7236 14.7901 42.7168 14.6857 42.728 14.5668C42.3169 13.8998 41.8827 13.8919 41.4577 14.5341C41.4181 14.595 41.3164 14.6159 41.2447 14.6571C41.1973 14.5564 41.1544 14.372 41.0261 14.4431C40.7428 14.5988 40.5185 14.3745 40.262 14.4201C40.7318 14.0952 40.7374 14.0809 40.432 13.8765C40.3869 13.7524 40.298 13.7134 40.1708 13.7512C39.9244 13.7051 39.6779 13.6466 39.4297 13.6196C39.2122 13.5963 39.0861 13.4982 39.0368 13.2954C39.1522 13.2473 39.2486 13.1811 39.2253 13.0412C39.2214 13.0118 39.1506 12.9706 39.1138 12.973C38.9539 12.9832 38.8662 13.0628 38.9066 13.2337C38.7801 13.5158 38.4666 13.4333 38.2618 13.5617C38.1619 13.4546 38.0411 13.4265 37.9027 13.4744C37.8385 13.3919 37.7743 13.3093 37.7102 13.2268C37.6373 12.9316 37.507 12.761 37.1441 12.8743C36.9401 12.9388 36.8232 12.8006 37.0053 12.6369C37.2608 12.4067 37.1796 12.2931 36.9259 12.1714C36.7574 12.09 36.7456 11.9894 36.9293 11.897C36.8855 11.7704 36.8423 11.6457 36.7985 11.5191C36.7352 11.7054 36.3809 11.7952 36.517 12.0069C36.684 12.2654 36.4729 12.2727 36.3655 12.2894C36.2032 12.3168 36.0306 12.2779 35.8612 12.2667C35.5923 12.3249 35.3227 12.3813 35.0538 12.4394C34.9382 12.2145 34.7715 12.3441 34.6155 12.3775C34.4321 12.4164 34.2562 12.5861 34.0398 12.433C34.1813 12.2608 34.3881 12.2714 34.5451 12.1862C34.6491 12.1297 34.7227 11.9912 34.6257 11.9591C34.3678 11.8738 34.0815 11.9482 33.8011 11.8645C33.6422 11.8168 33.5363 12.0979 33.5296 12.2358C33.5099 12.6267 33.2944 12.8575 32.9893 13.0473C33.0629 13.2416 33.2455 13.049 33.3466 13.1413C33.4551 13.225 33.5622 13.1653 33.6708 13.1339C33.8381 13.0061 33.8348 12.6396 34.1082 12.7093C34.4805 12.8043 34.7662 12.6191 35.0874 12.5366C35.2404 12.7487 35.5497 12.5348 35.7046 12.7461C35.9283 12.8721 36.0492 12.7008 36.1872 12.5791C36.2857 12.6518 36.3817 12.7233 36.4802 12.7961C36.6736 13.0824 36.2945 13.1068 36.2336 13.2881C36.155 13.5207 36.2058 13.6798 36.3777 13.801C36.5056 13.8923 36.672 14.0278 36.8344 13.9223C37.1015 13.7497 36.6146 13.717 36.7455 13.5505C36.928 13.5571 37.1092 13.5663 37.2916 13.573C37.3213 13.8462 37.2543 14.1549 37.5552 14.3342C37.6508 14.3442 37.6893 14.4131 37.7209 14.4863C37.7132 14.5486 37.7029 14.6097 37.6951 14.6719C37.2914 14.5405 37.1496 14.8751 36.9698 15.1181C36.8374 15.0202 36.8947 14.7621 36.6547 14.8554C36.5585 14.6258 36.2793 14.5212 36.2303 14.2588C36.1698 14.0538 36.0653 13.9092 35.8139 13.9818C35.7052 13.9825 35.5972 13.985 35.4885 13.9856C35.3887 13.9031 35.2694 13.7944 35.1647 13.9519C35.0556 14.1149 35.2162 14.125 35.3251 14.149C35.3524 14.2279 35.3622 14.3046 35.2982 14.374C35.2022 14.399 35.077 14.467 35.0153 14.3795C34.752 14.0002 34.3842 14.1358 34.0345 14.1726C33.9055 13.7756 33.6262 13.7614 33.2883 13.8989C33.0755 13.7199 33.148 13.6147 33.3832 13.5497C33.2454 13.0367 32.96 13.495 32.76 13.4861C32.1601 13.4658 31.9755 13.7371 32.1305 14.3059C32.1413 14.3371 32.1514 14.3664 32.1622 14.3976C31.9216 14.713 31.4581 14.8447 31.3901 15.3016C30.8398 15.5517 31.3321 15.6545 31.4573 15.8104C31.4363 15.8526 31.4159 15.8966 31.393 15.9394C31.2162 15.8158 31.0319 15.8221 30.845 15.9176C30.921 16.1008 30.8867 16.2256 30.6728 16.2976C30.4309 16.3793 30.1953 16.4855 29.9416 16.5877C30.0819 16.7507 30.3697 16.8318 30.1626 17.1048C30.1944 17.0938 30.2262 17.0828 30.2574 17.0761C30.2268 17.0847 30.1944 17.0938 30.1626 17.1048C29.9915 17.1312 29.8224 17.1569 29.652 17.185L29.6033 17.2019L29.5547 17.2187C29.3212 17.2461 29.1598 16.7556 28.8758 17.1333C28.7312 17.3025 28.5291 17.3601 28.3264 17.4221C28.0127 17.1876 27.8074 17.3511 27.7066 17.6407C27.5787 18.0095 27.3705 18.3158 27.1066 18.5941C27.0105 18.7341 26.9138 18.8724 26.8178 19.0124C26.9138 18.8724 27.0105 18.7341 27.1066 18.5941C26.9031 18.6296 26.6978 18.6657 26.4937 18.6994C26.2748 18.7813 25.9696 18.8315 26.3666 19.1008C26.4976 19.189 26.4397 19.3364 26.4286 19.4614C26.1966 19.7595 25.5456 19.537 25.5438 20.1005C26.3185 20.3294 26.7957 19.6568 27.4528 19.5218C27.5957 19.4928 27.7678 19.3244 27.4806 19.239C27.3123 19.1884 27.4123 18.9689 27.238 18.9676C27.2907 18.7932 27.4645 18.805 27.5897 18.7432C27.8418 18.7997 28.0883 18.7616 28.3322 18.6977C28.3521 18.5614 28.3958 18.4518 28.572 18.4524C28.8169 18.4518 28.816 18.2919 28.7825 18.1166C29.1592 18.0972 28.9584 18.5158 29.1721 18.6185C29.3888 18.7243 29.6457 18.5285 29.8522 18.7015C29.8744 18.7657 29.896 18.828 29.9183 18.8922C29.7424 18.9531 29.5295 18.9734 29.3983 19.0845C29.2037 19.2484 28.896 19.3098 28.6876 19.4641C28.1451 19.5245 27.6039 19.6194 27.0649 19.7505C26.7498 19.8267 26.6532 20.08 26.702 20.3178C26.6513 20.2984 26.5987 20.2796 26.5492 20.2639C26.2807 20.1719 26.1247 20.3081 26.1745 20.6093C26.1439 20.7267 26.1114 20.8447 26.0808 20.9621C25.9695 21.0582 25.8855 21.2269 25.6943 21.098C25.7636 20.9836 25.8398 20.871 25.9041 20.7542C25.9697 20.635 26.0533 20.5013 25.881 20.4089C25.7293 20.3279 25.6733 20.4808 25.6101 20.5643C25.4966 20.7145 25.3918 20.8658 25.2111 20.9428C25.1303 20.6852 25.5865 20.4842 25.3699 20.288C25.1815 20.119 24.9661 20.4771 24.7231 20.477C24.6153 20.3048 24.7409 20.0806 24.595 19.9133C24.3442 19.6304 24.5835 19.4202 24.794 19.4172C25.2232 19.4104 25.28 19.0785 25.4605 18.8434C25.5241 18.8214 25.5896 18.7988 25.6532 18.7767C25.794 18.7116 26.024 18.7162 26.0222 18.5175C26.0219 18.3472 25.8608 18.2571 25.6821 18.2368C25.3245 18.529 24.9741 18.8783 24.5191 18.2902C24.4813 18.5682 24.4512 18.7779 24.423 18.9869C24.3526 19.1284 24.3004 19.2861 24.1087 19.3134C23.3756 19.1379 23.289 19.1843 23.1963 19.8121C23.3483 19.8458 23.413 19.5666 23.5924 19.7037C23.9122 19.9258 23.7611 20.3848 24.0692 20.6273C24.1502 20.6917 24.0035 20.8247 23.8888 20.8747C23.8914 21.0093 23.8449 21.2863 24.0094 21.2109C24.453 21.0039 24.7007 21.3988 25.0526 21.429C25.1133 21.6647 24.9727 22.003 25.3798 22.0593C25.4476 22.1221 25.5256 22.1115 25.6054 22.088C25.6258 22.044 25.6487 22.0011 25.6691 21.9571C25.7131 21.7816 25.8466 21.6409 25.9563 21.492C25.8472 21.6428 25.7131 21.7816 25.6691 21.9571C25.6487 22.0011 25.6258 22.044 25.6054 22.088C26.0936 22.4756 26.4529 22.0308 26.8998 21.9603C26.7655 21.7357 26.5678 21.8062 26.2865 21.653C26.9003 21.5987 26.9049 21.1883 27.0231 20.8824C27.0397 20.8397 27.0489 20.7996 27.0549 20.7625C27.1608 20.8081 27.2858 20.8244 27.4249 20.7906C27.6526 20.7343 27.8823 20.6898 28.1113 20.6495C28.0191 20.7944 27.9788 20.9624 27.9892 21.156C27.9243 21.1743 27.8595 21.205 27.7952 21.2067C27.4024 21.2277 27.1348 21.3018 27.5487 21.7049C27.7227 21.8747 27.4451 21.9503 27.4546 22.0867C27.2228 22.1793 27.3934 22.6358 26.9901 22.5782C26.8269 22.5546 26.6123 22.4974 26.5327 22.6851C26.4933 22.783 26.5685 22.8186 26.6512 22.8578C26.2411 23.0469 25.8311 23.2361 25.4224 23.429C25.3294 23.342 25.2042 23.2827 25.0455 23.278C23.2653 23.2308 21.493 23.3513 19.7335 23.642C19.0282 23.7588 19.0893 24.8551 19.799 24.7388C21.0136 24.5382 22.2318 24.4205 23.4542 24.3814C21.4088 25.3955 19.3926 26.4694 17.411 27.6011C17.339 27.5685 17.257 27.5496 17.1614 27.5519C15.6554 27.5823 14.1774 27.8269 12.7361 28.2683C12.047 28.4802 12.4076 29.5159 13.0949 29.3047C13.8426 29.0746 14.5945 28.9108 15.3567 28.8011C13.259 30.0572 11.201 31.3796 9.18585 32.7653C8.594 33.1735 9.21877 34.0767 9.81249 33.6678C14.813 30.2258 20.0799 27.166 25.5711 24.5606C25.9113 24.3997 26.2515 24.2388 26.593 24.0816C26.5731 24.2056 26.5413 24.3254 26.3824 24.3989C26.2739 24.4488 26.0554 24.586 26.1768 24.7309C26.329 24.9104 26.5055 24.7486 26.6441 24.6226C26.7336 24.5423 26.8031 24.4525 26.8118 24.3263C26.7947 24.1679 27.1042 24.1059 26.9762 23.9058C27.8524 23.5018 28.7317 23.1071 29.6129 22.7178C29.7118 22.9855 29.9645 22.9289 30.1703 22.9665C30.4023 23.0074 30.6396 22.8882 30.8731 22.9697C31.049 23.03 31.2837 23.109 31.3499 22.8765C31.4227 22.6151 31.0674 22.7504 30.9621 22.5794C31.478 22.4419 31.5488 22.9309 31.8129 23.125C31.8062 23.269 31.7118 23.3654 31.6174 23.4556C31.3638 23.6974 31.4763 23.8167 31.7528 23.8894C31.6325 24.1529 31.4494 24.0293 31.2996 23.9477C31.0884 23.8338 30.893 23.844 30.6842 23.943L30.6375 23.9592L30.5907 23.9753C30.199 24.0965 29.8261 24.3324 29.3967 24.0662C29.2525 23.9764 29.0675 24.0713 28.9079 24.1306C28.6516 24.5398 28.3495 24.9258 28.2654 25.415C28.0818 25.7805 27.7583 25.7959 27.3458 25.7539C27.539 25.6767 27.6787 25.6263 27.8126 25.5655C27.9497 25.5017 28.0372 25.3913 27.9652 25.2437C27.8969 25.1009 27.7441 25.1436 27.657 25.2066C27.4012 25.3937 26.5551 25.019 26.9797 25.8765C26.9892 25.8978 26.9296 25.9555 26.8985 25.9929C26.7025 26.2374 26.9332 26.2746 27.0592 26.2331C27.4177 26.1131 27.7204 26.2856 28.0456 26.3414C28.0564 26.3726 28.0672 26.4038 28.0786 26.4368C27.596 26.6039 27.2596 27.1147 26.6751 27.0357C26.5082 27.0133 26.4173 27.0777 26.3732 27.2285C26.3204 27.409 26.466 27.4059 26.5724 27.4409C26.7001 27.483 26.8246 27.5282 26.9511 27.5728C26.9727 27.6351 26.9949 27.6993 27.0165 27.7617C27.0306 27.8205 27.044 27.8775 27.0574 27.9344C26.8519 28.0549 26.6458 28.1735 26.4397 28.2921C27.0313 27.9497 27.6204 27.6061 28.21 27.2581C27.9958 27.2686 27.839 27.2634 27.7183 27.2538C27.7111 27.1905 27.7176 27.1246 27.7462 27.0983C27.7308 27.1324 27.8125 27.2232 28.215 27.2544C29.0575 26.7594 29.8975 26.2632 30.7394 25.7664C30.6581 25.6404 30.573 25.5158 30.5279 25.3733C30.573 25.5158 30.6581 25.6404 30.7394 25.7664C32.0532 24.9932 33.3677 24.2218 34.6936 23.4712C36.788 22.284 38.9082 21.1413 41.0846 20.1126C42.3052 19.536 43.5518 19.0224 44.7984 18.5087C44.869 18.2768 44.5615 18.0361 44.7083 17.8066C44.8594 17.6742 44.8348 17.5184 44.7677 17.3608C44.7498 17.2972 44.7307 17.236 44.7129 17.1723C44.9099 17.1062 45.1152 17.0516 45.251 16.8751C45.42 16.8187 45.5733 16.7471 45.6327 16.5314C45.4726 16.5047 45.3475 16.4823 45.2206 16.4605C45.2199 16.5675 45.2193 16.6746 45.2186 16.7816C45.2193 16.6746 45.2199 16.5675 45.2206 16.4605C45.2098 16.4293 45.1971 16.3988 45.1845 16.3682C45.4001 16.0533 45.765 15.9516 46.0676 15.7606C46.2219 15.6619 46.2153 15.806 46.2177 15.9038C45.9477 16.1102 46.0642 16.2773 46.3124 16.3044C46.6262 16.3395 46.9678 16.3158 47.0905 15.92C47.285 15.8526 47.4796 15.7853 47.6741 15.718C47.7167 15.7381 47.7581 15.7608 47.8007 15.781C47.543 15.9503 47.6381 16.0981 47.8675 16.1132C48.03 16.1227 48.0942 16.2052 48.1914 16.2804C48.2083 16.2746 48.2251 16.2687 48.2401 16.2636C48.2232 16.2694 48.2064 16.2752 48.1914 16.2804C47.5904 16.4926 47.6714 16.4604 47.8521 16.9401C47.8845 17.0275 47.9174 17.0983 47.9502 17.1568C51.3835 15.5472 54.7182 13.0782 55.3573 9.14533C55.9474 5.51899 53.386 2.60975 49.8166 2.08917C45.8194 1.50711 42.3404 3.88018 39.9927 6.90716C39.3569 7.72703 38.7889 8.59739 38.2609 9.48674C37.2733 9.82864 36.268 10.0349 35.2535 10.1601C35.2431 10.1966 35.2464 10.2365 35.2679 10.2804L35.2811 10.2882ZM40.4351 13.8795C40.3603 13.9054 40.2849 13.9356 40.2088 13.9579C40.2855 13.9375 40.3603 13.9054 40.4351 13.8795ZM24.7235 19.2136C24.7471 19.1849 24.7738 19.1592 24.7993 19.136C24.772 19.1598 24.7471 19.1849 24.7235 19.2136C24.6776 19.2562 24.6328 19.3025 24.5881 19.3426C24.6328 19.3025 24.6776 19.2562 24.7235 19.2136ZM28.6399 26.146C28.5483 26.1962 28.4662 26.2616 28.3791 26.3184C28.4662 26.2616 28.5483 26.1962 28.6399 26.146C28.6432 26.0647 28.6484 25.9828 28.6529 25.8991C28.6496 25.9804 28.6426 26.0629 28.6399 26.146ZM31.3522 25.2071C31.2893 25.2432 31.2239 25.2659 31.1565 25.283C31.2239 25.2659 31.2893 25.2432 31.3522 25.2071ZM31.8612 24.4989C31.8612 24.4989 31.8468 24.4998 31.8387 24.5005C31.8106 24.5041 31.7869 24.5082 31.7632 24.5123C31.7869 24.5082 31.8119 24.5016 31.8387 24.5005C31.8462 24.4979 31.8524 24.4978 31.8612 24.4989C31.8396 24.4365 31.818 24.3742 31.7964 24.3118C31.818 24.3742 31.8396 24.4365 31.8612 24.4989ZM42.237 16.2588C42.237 16.2588 42.2313 16.2423 42.2287 16.235C42.2313 16.2423 42.2345 16.2515 42.237 16.2588ZM41.0632 15.0465C41.041 14.9823 41.0169 14.9188 40.9928 14.8552C41.0151 14.9194 41.0391 14.983 41.0632 15.0465ZM33.8901 19.0804C33.8247 19.1093 33.7624 19.1411 33.7076 19.1826C33.7624 19.1411 33.8253 19.1111 33.8901 19.0804ZM33.0867 17.0621C33.1166 17.0518 33.1484 17.0407 33.1777 17.0286C33.1478 17.0389 33.116 17.0499 33.0867 17.0621ZM38.0998 17.4506C38.0177 17.4072 37.9375 17.363 37.8555 17.3257C37.9375 17.363 38.0177 17.4072 38.0998 17.4506ZM35.675 17.8587C35.6339 17.8729 35.5915 17.8896 35.5485 17.9107C35.3348 18.0196 35.1193 18.1291 34.9062 18.2398C35.1199 18.1309 35.3354 18.0214 35.5485 17.9107C35.5915 17.8896 35.6339 17.8729 35.675 17.8587ZM39.9842 15.6871C39.9538 15.7325 39.9455 15.8052 39.9302 15.8639C39.9461 15.8071 39.9526 15.735 39.9842 15.6871ZM39.7027 15.9694C39.7468 15.9274 39.7929 15.8909 39.8496 15.8733C39.7929 15.8909 39.7468 15.9274 39.7027 15.9694C39.6884 15.9825 39.6748 15.9975 39.6611 16.0125C39.6748 15.9975 39.6891 15.9844 39.7027 15.9694ZM37.9896 14.9356C37.8818 15.1085 37.7519 15.2171 37.6085 15.2811C37.7519 15.2171 37.8818 15.1085 37.9896 14.9356ZM37.3185 15.8047C37.2989 15.7786 37.2781 15.7426 37.2592 15.7122C37.2781 15.7426 37.2989 15.7786 37.3185 15.8047C37.5111 15.738 37.7038 15.6713 37.8952 15.6071C37.9662 15.4428 38.0506 15.3417 38.1471 15.2939C38.0506 15.3417 37.9662 15.4428 37.8952 15.6071C37.9067 15.6401 37.9175 15.6713 37.9289 15.7043C38.1012 15.6816 38.2735 15.6589 38.4452 15.6344C38.4864 15.7414 38.5424 15.8247 38.6071 15.8906C38.5424 15.8247 38.4864 15.7414 38.4452 15.6344C38.2729 15.6571 38.1006 15.6798 37.9289 15.7043C37.8774 15.7612 37.8333 15.8216 37.7887 15.8863C37.8321 15.8241 37.8774 15.7612 37.9289 15.7043C37.9175 15.6713 37.9067 15.6401 37.8952 15.6071C37.7026 15.6738 37.5099 15.7405 37.3185 15.8047C37.2091 15.8035 37.0993 15.8251 36.9901 15.8424C37.0993 15.8251 37.2091 15.8035 37.3203 15.804L37.3185 15.8047ZM36.3104 15.7305C36.2789 15.573 36.2306 15.4336 36.1569 15.3235C36.2306 15.4336 36.2789 15.573 36.3104 15.7305C36.1744 15.7735 36.0835 15.8316 36.0396 15.9105C36.0297 15.9304 36.0223 15.9514 36.0175 15.9736C36.0223 15.9514 36.0297 15.9304 36.0396 15.9105C36.0835 15.8316 36.1744 15.7735 36.3104 15.7305ZM32.7267 15.6955C32.7579 15.6888 32.7903 15.6796 32.8209 15.6711C32.791 15.6815 32.7579 15.6888 32.7273 15.6973C32.6273 15.6744 32.5321 15.6294 32.4344 15.5892C32.5321 15.6294 32.6273 15.6744 32.7273 15.6973L32.7267 15.6955ZM32.5346 16.0845L32.5315 16.0876L32.5352 16.0863L32.5346 16.0845ZM32.1555 18.1239C32.198 18.0168 32.2066 17.8844 32.2322 17.7646C32.2066 17.8844 32.198 18.0168 32.1555 18.1239ZM30.7799 16.7884C30.7694 16.8064 30.7601 16.8281 30.7502 16.848C30.7601 16.8281 30.7694 16.8064 30.7799 16.7884ZM31.5442 19.19C31.5163 19.1093 31.4977 19.0192 31.4436 18.9537C31.5002 19.0204 31.5181 19.1087 31.5442 19.19ZM30.6283 17.1613C30.6738 17.1353 30.725 17.1443 30.7764 17.1655C30.725 17.1443 30.6731 17.1335 30.6283 17.1613C30.568 17.096 30.5047 17.0706 30.4372 17.0632C30.5047 17.0706 30.5686 17.0978 30.6283 17.1613ZM29.8359 19.2473C29.7701 19.2146 29.705 19.1838 29.6475 19.1749C29.705 19.1838 29.7701 19.2146 29.8359 19.2473ZM29.402 19.4098C29.4176 19.4004 29.4331 19.3909 29.4487 19.3814C29.4656 19.2728 29.4996 19.2138 29.5451 19.1878C29.4996 19.2138 29.4656 19.2728 29.4487 19.3814C29.4331 19.3909 29.4176 19.4004 29.402 19.4098ZM28.4577 22.0434C28.3998 22.0697 28.3418 22.0959 28.2839 22.1221C28.3132 22.0133 28.3794 22.011 28.4577 22.0434ZM29.1065 21.7572C29.1065 21.7572 29.0845 21.7484 29.0739 21.7418C29.0428 21.6642 29.0019 21.6004 28.9094 21.5872C28.8194 21.3575 28.5958 21.2623 28.4207 21.1196C28.4436 21.0768 28.4646 21.0346 28.4881 20.9936C28.8355 21.1075 28.9589 20.8408 29.1052 20.628C29.1306 20.5925 29.1529 20.5539 29.1764 20.5191C29.681 20.482 30.1851 20.4801 30.6895 20.515C30.6989 20.524 30.7077 20.5313 30.7171 20.5403C30.8571 20.6603 31.0899 20.7338 30.9269 20.9648C30.3199 21.2263 29.7135 21.4896 29.1083 21.7566L29.1065 21.7572ZM32.8016 23.7482C32.7442 23.7701 32.6869 23.792 32.6289 23.8121C32.6869 23.792 32.7449 23.7719 32.8016 23.7482C32.7939 23.5927 32.739 23.4946 32.6611 23.4271C32.7383 23.4928 32.7932 23.5908 32.8016 23.7482ZM32.764 22.3809C32.6724 22.4187 32.5801 22.4548 32.4915 22.4711C32.5801 22.4548 32.6724 22.4187 32.764 22.3809ZM32.7872 21.8367C32.7687 21.8801 32.7502 21.9235 32.7311 21.965C32.5244 22.0941 32.3284 22.242 32.0819 22.2986C32.0177 22.3188 31.9528 22.3371 31.8886 22.3573C31.703 22.2326 31.4343 22.3399 31.2709 22.1521C31.2518 22.1032 31.2248 22.0674 31.1971 22.0359C31.6895 21.8244 32.1837 21.6122 32.6792 21.4037C32.7667 21.5172 32.8174 21.6517 32.7872 21.8367ZM33.7884 21.9153C33.7375 21.974 33.6816 22.0303 33.6206 22.072C33.6841 22.0315 33.7375 21.974 33.7884 21.9153C33.7827 21.8865 33.7725 21.8571 33.7623 21.8278C33.7725 21.8571 33.7827 21.8865 33.7884 21.9153ZM35.0589 22.4389C34.9833 22.5349 34.9076 22.6309 34.8319 22.727C34.9076 22.6309 34.9833 22.5349 35.0589 22.4389C35.1333 22.448 35.2077 22.4572 35.2821 22.4664C35.2077 22.4572 35.1333 22.448 35.0589 22.4389ZM35.8302 22.1678C35.7254 22.3006 35.5814 22.3627 35.4318 22.4145C35.5814 22.3627 35.7254 22.3006 35.8302 22.1678ZM36.4762 21.8373C36.4416 21.7979 36.4021 21.7685 36.3595 21.7483C36.4021 21.7685 36.4416 21.7979 36.4762 21.8373C36.5155 21.8237 36.5567 21.8156 36.5936 21.8193C36.5548 21.8163 36.5161 21.8256 36.4762 21.8373ZM36.7591 20.4638C36.7231 20.4023 36.7003 20.3425 36.6912 20.286C36.7009 20.3443 36.7231 20.4023 36.7591 20.4638C36.9382 20.4367 37.1281 20.5436 37.1918 20.6427C37.1281 20.5436 36.9394 20.4343 36.7591 20.4638ZM37.2736 19.7537C37.2389 19.6897 37.2018 19.643 37.1666 19.6079C37.2043 19.6442 37.2396 19.6916 37.2736 19.7537ZM37.4985 19.9737C37.5168 20.0023 37.5482 20.0325 37.5984 20.0685C37.6349 20.1257 37.6652 20.183 37.6849 20.2399C37.6652 20.183 37.6349 20.1257 37.5984 20.0685C37.5482 20.0325 37.5168 20.0023 37.4985 19.9737ZM38.1211 21.27C38.0886 21.2607 38.0529 21.2545 38.0204 21.2453C38.0548 21.2539 38.0904 21.26 38.1211 21.27ZM37.4718 19.4489C37.4799 19.4297 37.4885 19.4123 37.4997 19.3961C37.4885 19.4123 37.4799 19.4297 37.4718 19.4489ZM38.1885 21.1378C38.1638 21.0786 38.1304 21.0367 38.0878 21.0165C38.1304 21.0367 38.1656 21.0779 38.1885 21.1378C38.219 21.0204 38.2496 20.903 38.2808 20.7874C38.2503 20.9048 38.2197 21.0222 38.1885 21.1378ZM40.0853 20.0519C40.0301 20.0012 39.9948 19.9538 39.9727 19.9142C39.9658 19.9002 39.9595 19.888 39.9569 19.8745C39.9613 19.8873 39.9658 19.9002 39.9727 19.9142C39.9936 19.9563 40.0301 20.0012 40.0853 20.0519C40.1714 20.0221 40.2461 19.9777 40.3221 19.9309C40.248 19.9771 40.1707 20.0202 40.0853 20.0519ZM39.8899 19.1664C39.8664 19.0986 39.8422 19.0289 39.8007 18.9816C39.8435 19.0264 39.8657 19.0967 39.8899 19.1664C39.978 19.1729 40.05 19.2116 40.1159 19.2566C40.0494 19.2098 39.978 19.1729 39.8899 19.1664ZM40.8483 18.5163L40.8521 18.515L40.8483 18.5163ZM41.1448 19.3667C41.1989 19.2083 41.2524 19.0481 41.3046 18.8903C41.1883 18.8751 41.09 18.8393 41.0122 18.7779C41.09 18.8393 41.1877 18.8733 41.3046 18.8903C41.2505 19.0487 41.197 19.209 41.1448 19.3667ZM41.4704 19.0425C41.4488 18.9801 41.4253 18.9184 41.4018 18.8567C41.4234 18.919 41.4469 18.9807 41.4704 19.0425C41.5007 18.997 41.5432 18.9926 41.5938 19.0059C41.5457 18.9938 41.5007 18.997 41.4704 19.0425ZM42.1653 18.1816C42.1331 18.2461 42.0784 18.3 42.0012 18.3431C42.0791 18.3018 42.1356 18.2473 42.1653 18.1816C42.1974 18.1171 42.2044 18.0407 42.1915 17.9548C42.207 18.0419 42.1974 18.1171 42.1653 18.1816ZM42.8608 18.6721C42.7527 18.6745 42.644 18.6752 42.536 18.6777C42.6447 18.677 42.7527 18.6745 42.8608 18.6721ZM42.8815 18.7923C42.9139 18.8858 42.9858 18.9061 43.067 18.9047C42.9858 18.9061 42.9157 18.8852 42.8815 18.7923ZM43.6476 18.5969C43.6824 18.5766 43.7148 18.5551 43.7465 18.5318C43.7148 18.5551 43.6806 18.5773 43.6476 18.5969ZM42.6797 15.6496C42.6139 15.5142 42.6245 15.3934 42.6651 15.2808C42.6245 15.3934 42.6133 15.5123 42.6797 15.6496ZM44.0573 18.3647C44.0274 18.3689 43.9993 18.3786 43.9719 18.3901C43.9999 18.3804 44.028 18.3707 44.0573 18.3647ZM44.0543 18.0412C44.0435 18.01 44.0327 17.9788 44.0219 17.9476C44.0327 17.9788 44.0435 18.01 44.0543 18.0412C44.0824 18.0376 44.1117 18.0316 44.1392 18.0262C44.1092 18.0304 44.0817 18.0358 44.0543 18.0412ZM43.5226 15.5673C43.501 15.5049 43.4794 15.4426 43.4578 15.3802C43.4794 15.4426 43.501 15.5049 43.5226 15.5673C43.5456 15.5491 43.5674 15.5395 43.588 15.5323C43.5674 15.5395 43.5462 15.5509 43.5226 15.5673ZM43.519 15.2543C43.4709 15.2545 43.4296 15.2503 43.3952 15.2417C43.3608 15.233 43.332 15.2225 43.3082 15.2081C43.332 15.2225 43.3589 15.2337 43.3952 15.2417C43.4296 15.2503 43.4709 15.2545 43.519 15.2543ZM43.5527 15.031C43.5642 15.0702 43.5694 15.1095 43.5658 15.1477C43.5694 15.1095 43.5623 15.0708 43.5527 15.031C43.5993 14.9779 43.6421 14.9384 43.6845 14.9156C43.6428 14.9403 43.5993 14.9779 43.5527 15.031ZM43.7378 14.7184C43.7378 14.7184 43.7477 14.7047 43.7539 14.6985C43.7477 14.7047 43.744 14.7122 43.7378 14.7184ZM46.2647 15.3678C46.2532 15.3348 46.2418 15.3018 46.2304 15.2688C46.2418 15.3018 46.2532 15.3348 46.2647 15.3678ZM49.304 15.3735C49.3247 15.3787 49.3441 15.3864 49.3653 15.3934C49.3441 15.3864 49.3247 15.3787 49.304 15.3735ZM48.0598 13.9699C48.0243 13.9761 47.9874 13.9786 47.9574 13.9705C47.9874 13.9786 48.0249 13.9779 48.0598 13.9699C48.1465 13.9297 48.1867 13.8583 48.1668 13.7706C48.1867 13.8583 48.1465 13.9297 48.0598 13.9699ZM49.5657 15.8149C49.4955 15.7694 49.4042 15.7538 49.3228 15.7244C49.4042 15.7538 49.4955 15.7694 49.5657 15.8149C49.5784 15.8455 49.5942 15.879 49.6168 15.902C49.5942 15.879 49.5803 15.8448 49.5657 15.8149ZM50.3054 15.1378C50.1507 15.0784 50.0241 14.9969 49.9298 14.8878C50.0241 14.9969 50.1507 15.0784 50.3054 15.1378C50.4361 15.1644 50.5567 15.1679 50.6628 15.1476C50.5586 15.1672 50.438 15.1638 50.3054 15.1378ZM50.3594 13.7326C50.4295 13.7597 50.4903 13.7839 50.5441 13.8063C50.4903 13.7839 50.4295 13.7597 50.3594 13.7326ZM50.7737 12.7388C50.8667 12.7354 50.9155 12.7493 50.9425 12.7728C50.9155 12.7493 50.8667 12.7354 50.7737 12.7388ZM51.2559 11.9352C51.2602 12.0446 51.2432 12.1285 51.2073 12.1943C51.2413 12.1292 51.2609 12.0464 51.2559 11.9352ZM55.2998 7.02488C55.3113 7.0579 55.3252 7.0921 55.3348 7.12577C55.2309 7.20076 55.1112 7.25451 54.9896 7.2843C55.1106 7.25267 55.2309 7.20076 55.3348 7.12577C55.3271 7.09146 55.3157 7.05844 55.2998 7.02488ZM54.6517 6.40504C54.7267 6.41604 54.8017 6.42704 54.8749 6.43869C54.7999 6.42769 54.7248 6.41669 54.6517 6.40504C54.5195 6.34398 54.4184 6.36665 54.3651 6.43031C54.4184 6.36665 54.5195 6.34398 54.6517 6.40504ZM54.3083 7.22845C54.3528 7.25413 54.4035 7.27355 54.4567 7.288C54.4035 7.27355 54.3547 7.25348 54.3083 7.22845ZM53.8809 5.97555C53.8174 5.91944 53.7361 5.8901 53.6156 5.91741C53.7379 5.88945 53.8174 5.91944 53.8809 5.97555ZM54.1072 7.02281C54.1445 7.10028 54.208 7.16253 54.2851 7.20979C54.208 7.16253 54.1445 7.10028 54.1072 7.02281C54.0383 6.98095 53.9713 6.95689 53.9094 6.94751C53.9732 6.95624 54.0383 6.98095 54.1072 7.02281ZM52.3496 10.1084C52.2637 10.0601 52.1683 9.97811 52.0527 9.86202C51.9428 9.87746 51.8678 9.86646 51.8326 9.82524C51.8678 9.86646 51.9428 9.87746 52.0527 9.86202C52.1664 9.97876 52.2643 10.0619 52.3496 10.1084C52.3784 10.1252 52.4053 10.1364 52.431 10.1439C52.4053 10.1364 52.3778 10.1233 52.3496 10.1084ZM53.0073 7.6213C53.0505 7.74603 53.093 7.86892 53.1362 7.99365C53.1672 8.05893 53.2019 8.12291 53.231 8.18884C53.2019 8.12291 53.1697 8.06012 53.1362 7.99365C53.076 8.06174 53.082 8.13975 53.1043 8.21625C53.1022 8.27657 53.0975 8.3357 53.0916 8.39731C53.0956 8.33635 53.1022 8.27657 53.1043 8.21625C53.0143 8.54935 52.5174 8.49338 52.4632 8.86338C52.3996 8.88539 52.3354 8.91172 52.2718 8.93374C51.8082 8.48415 51.8346 8.39697 52.5264 8.09588C52.8142 8.06198 52.9255 7.85707 53.0048 7.62011L53.0073 7.6213ZM51.7676 8.034C51.7901 8.03238 51.8182 8.02882 51.8513 8.02148C51.8182 8.02882 51.7926 8.03356 51.7676 8.034ZM52.1332 7.6014C52.1468 7.5864 52.1599 7.56957 52.1729 7.55273C52.1599 7.56957 52.1468 7.5864 52.1332 7.6014ZM51.6098 6.39199C51.6503 6.38206 51.6897 6.37461 51.7278 6.37579C51.6897 6.37461 51.6503 6.38206 51.6098 6.39199ZM50.2361 3.04696C50.2978 3.0256 50.3689 3.00714 50.427 3.00552C50.3689 3.00714 50.2985 3.02743 50.2361 3.04696ZM51.4899 6.62042C51.4728 6.70437 51.4696 6.79176 51.45 6.87453C51.3864 6.89654 51.3241 6.92223 51.2605 6.94424C51.3241 6.92223 51.3864 6.89654 51.45 6.87453C51.4696 6.79176 51.4728 6.70437 51.4899 6.62042ZM49.7823 2.67409C49.725 2.70215 49.6751 2.71532 49.6333 2.71543C49.6751 2.71532 49.725 2.70215 49.7823 2.67409ZM50.4777 5.93554C50.5733 6.04829 50.6375 6.13698 50.6692 6.21639C50.6375 6.13698 50.5727 6.04645 50.4777 5.93554ZM49.1801 4.68604C49.21 4.67568 49.2399 4.66532 49.2705 4.65679C49.3004 4.64643 49.3316 4.63974 49.3622 4.63736C49.3316 4.63974 49.3011 4.64827 49.2705 4.65679C49.2406 4.66715 49.2106 4.67751 49.1801 4.68604ZM46.2099 4.86795C46.1294 4.78693 46.0449 4.75456 45.9612 4.75478C46.0468 4.75391 46.1313 4.78628 46.2117 4.86731L46.2099 4.86795ZM45.4637 4.59426C45.4137 4.58898 45.3692 4.5756 45.3279 4.5591C45.3692 4.5756 45.4137 4.58898 45.4637 4.59426ZM44.802 2.90071C44.4923 3.15581 44.224 3.44586 43.9834 3.76127C44.2222 3.44651 44.4904 3.15645 44.802 2.90071ZM43.5528 4.40536C43.5637 4.55771 43.6489 4.71923 43.6729 4.8732C43.6489 4.71923 43.5637 4.55771 43.5528 4.40536C43.4892 4.42737 43.4237 4.45004 43.3601 4.47205C43.4237 4.45004 43.4892 4.42737 43.5528 4.40536ZM41.8208 6.59682C41.8015 6.61376 41.7829 6.63254 41.7686 6.65185C41.7847 6.63189 41.8015 6.61376 41.8208 6.59682ZM41.493 5.96466C41.5721 5.92084 41.6468 5.86419 41.724 5.81488C41.6468 5.86419 41.5721 5.92084 41.493 5.96466C41.4434 5.91815 41.3888 5.87543 41.3306 5.8586C41.3888 5.87543 41.4434 5.91815 41.493 5.96466ZM41.4023 6.95529C41.3213 6.98745 41.2415 7.01098 41.1646 7.00678C41.2415 7.01098 41.3213 6.98745 41.4023 6.95529ZM40.3223 6.52193C40.3693 6.5611 40.4288 6.58775 40.4914 6.60511C40.4282 6.58591 40.3693 6.5611 40.3223 6.52193ZM40.6956 8.04826C40.7172 8.11063 40.7407 8.17849 40.7803 8.2264C40.7413 8.18033 40.7178 8.11246 40.6956 8.04826C40.6831 8.04848 40.6719 8.05236 40.6638 8.05927C40.6725 8.0542 40.6825 8.05279 40.6956 8.04826ZM40.0522 8.05942C39.877 8.12827 39.823 8.07508 39.8001 7.9906C39.8249 8.07443 39.877 8.12827 40.0522 8.05942ZM38.0198 9.71604C38.0247 9.69382 38.0321 9.67278 38.0414 9.65724C38.0308 9.67526 38.0247 9.69382 38.0198 9.71604C37.9719 9.74086 37.9076 9.7549 37.859 9.78403C37.9057 9.75554 37.97 9.74151 38.0198 9.71604Z" fill="#A5AC33"/>
<path d="M23.8717 11.4278C24.1744 11.5942 24.6202 11.3269 24.8417 11.7308C25.397 12.161 26.0129 12.1368 26.6534 11.954C26.9052 12.0579 27.179 11.8687 27.4265 12.0028C27.3612 12.1589 26.9992 12.2267 27.2712 12.4858C27.8813 12.6752 28.5107 12.8352 28.8919 13.4099C29.0008 13.6762 28.8796 13.7859 28.6178 13.78C28.4791 13.7787 28.3725 13.8218 28.3739 13.9651C28.3754 14.1145 28.5017 14.1345 28.6285 14.1316C28.7284 14.1299 28.8291 14.1362 28.929 14.1406C29.0581 14.0959 29.1859 14.0537 29.3156 14.0109C29.4375 14.1268 29.4506 14.2435 29.2862 14.3251C29.0189 14.4607 28.7517 14.6025 28.4711 14.6996C28.3346 14.7469 28.1163 14.7033 28.1618 14.9135C28.2124 15.1445 28.4175 15.053 28.5778 15.0078C28.9516 15.168 29.3438 15.478 29.6146 14.8625C29.7872 14.7802 30.109 14.7776 30.0828 14.5628C30.0164 13.9839 30.3609 14.0167 30.7396 14.0458C30.835 14.0128 30.9323 13.9791 31.0277 13.9461L31.0289 13.9498C31.0783 14.0682 31.1043 14.2523 31.2722 14.2107C31.4269 14.1735 31.4565 13.9866 31.4907 13.8434C31.5248 13.7001 31.3807 13.5137 31.6295 13.4215C31.7666 13.3699 32.0566 13.5057 32.021 13.2695C31.984 13.0235 31.6997 13.2431 31.5413 13.1788C31.3146 13.0868 31.1114 13.1653 30.9063 13.2445C30.7399 13.3083 30.5801 13.3369 30.44 13.1924C30.4965 13.1379 30.5461 13.0693 30.6146 13.0313C30.7261 12.966 30.909 12.9376 30.8024 12.7629C30.7192 12.6253 30.6061 12.7405 30.5052 12.7939C30.4523 12.8225 30.376 12.8078 30.311 12.8139C30.0596 12.7592 29.8124 12.7954 29.5666 12.86C29.4586 12.8625 29.3517 12.8625 29.2437 12.865C28.9809 12.8019 28.9631 12.6232 29.0394 12.414C29.1538 12.1032 29.3153 11.8193 29.5595 11.5869C29.5275 11.2282 29.3494 11.1071 29.0004 11.2484C28.8751 11.298 28.7466 11.3383 28.6213 11.3817C28.5577 11.4037 28.4922 11.4264 28.4286 11.4484C27.9147 11.7126 27.3637 11.3857 26.8456 11.565C26.737 11.4814 26.6287 11.5436 26.5214 11.5725C26.5103 11.486 26.4022 11.3734 26.5487 11.3248C26.6815 11.2788 26.8246 11.2745 26.7748 11.0822C26.7269 10.8954 26.5632 10.8946 26.4132 10.891C26.1802 10.8834 25.9447 10.8869 25.7715 11.0885C25.6269 11.2577 25.4226 11.2607 25.2266 11.2813C25.1948 11.2923 25.163 11.3033 25.1312 11.3143C24.8063 11.1926 24.4636 11.2435 24.1287 11.2382C23.8683 11.1517 23.6085 11.0608 23.3271 11.2281C23.4695 11.4397 23.6854 11.3978 23.8705 11.4364L23.8717 11.4278Z" fill="#A5AC33"/>
<path d="M6.99729 28.7123C6.64488 29.4854 6.29747 30.2609 5.97323 31.0428C5.92638 31.1556 5.8814 31.2677 5.83769 31.3834C5.88203 31.2695 5.92825 31.1549 5.97323 31.0428C6.29934 30.2603 6.64424 29.4836 6.99729 28.7123Z" fill="#A5AC33"/>
<path d="M25.1349 23.0889C25.3133 23.0354 25.3425 22.8897 25.2854 22.7308C25.2264 22.5725 25.1072 22.4823 24.9396 22.5608C24.8062 22.6234 24.6799 22.7185 24.7217 22.93C24.8272 23.029 24.9535 23.1456 25.1368 23.0882L25.1349 23.0889Z" fill="#A5AC33"/>
<path d="M24.0341 15.455C24.0473 15.4751 24.1684 15.4558 24.2088 15.4213C24.3761 15.275 24.2648 15.1595 24.1499 15.0514C23.9743 15.1491 23.9207 15.2848 24.0334 15.4532L24.0341 15.455Z" fill="#A5AC33"/>
<path d="M25.2155 25.1973C25.2977 25.1626 25.3774 25.1022 25.3531 25.014C25.3193 24.8922 25.2038 24.9034 25.1046 24.9316C25.0017 24.9611 24.9177 25.0148 24.9565 25.1452C25.0215 25.2603 25.1182 25.2371 25.2155 25.1973Z" fill="#A5AC33"/>
<path d="M29.2561 10.7285C29.366 10.7193 29.5095 10.801 29.5655 10.6481C29.6289 10.4742 29.4556 10.4397 29.3619 10.4413C29.2539 10.4438 29.175 10.4218 29.1142 10.3792C28.6932 10.3852 28.2715 10.3956 27.8524 10.4134C28.1501 10.4623 28.4425 10.5747 28.7481 10.4833C29.0025 10.3953 29.0307 10.7491 29.2561 10.7285Z" fill="#A5AC33"/>
<path d="M25.8107 24.8536C25.883 24.808 25.8807 24.741 25.8367 24.6864C25.8115 24.6561 25.7458 24.6296 25.7146 24.6424C25.6498 24.6669 25.612 24.7334 25.6418 24.8011C25.6715 24.8689 25.7397 24.8782 25.8089 24.8542L25.8107 24.8536Z" fill="#A5AC33"/>
<path d="M25.8476 25.2988C25.953 25.2644 26.1003 25.2483 26.0757 25.0864C26.0543 24.952 25.9388 24.9571 25.8409 24.9951C25.7262 25.0389 25.5631 25.0276 25.5434 25.2008C25.616 25.3379 25.7328 25.3365 25.8476 25.2988Z" fill="#A5AC33"/>
<path d="M25.6082 10.6048C25.7799 10.5803 25.9509 10.5601 26.1245 10.5411C25.9528 10.5595 25.7799 10.5803 25.6082 10.6048C21.2616 11.2037 17.4388 13.5519 14.4462 16.6707C13.863 17.2793 13.3137 17.9131 12.795 18.5692C13.3137 17.9131 13.863 17.2793 14.4462 16.6707C17.4388 13.5519 21.2609 11.2018 25.6082 10.6048Z" fill="#A5AC33"/>
<path d="M22.9761 14.1657C23.0205 14.1606 23.1304 14.1575 23.0449 14.0618C23.0141 14.0273 22.9597 14.0153 22.9177 13.9908C23.015 13.9571 23.1104 13.9241 23.2076 13.8904C23.4845 13.8008 23.2301 13.5438 23.3661 13.4104C23.5579 13.2926 23.9038 13.366 23.9497 13.0933C24.0005 12.7923 23.2928 12.3512 22.9094 12.3997C22.7459 12.3084 22.6106 12.3655 22.5183 12.5043C22.4316 12.635 22.451 12.7577 22.6213 12.8199C22.6597 12.8826 22.7544 12.9381 22.6524 13.0186C22.5404 13.1067 22.3466 13.1943 22.4293 13.3424C22.5454 13.5507 22.7469 13.3947 22.9135 13.3555C22.9379 13.4621 22.9177 13.543 22.8087 13.6033C22.7103 13.658 22.4662 13.6788 22.6038 13.8345C22.7063 13.949 22.7352 14.1957 22.9768 14.1675L22.9761 14.1657Z" fill="#A5AC33"/>
<path d="M48.0999 6.82437C48.0136 6.8111 47.9211 6.80409 47.8237 6.80701C47.8607 6.84143 47.8959 6.8765 47.9299 6.91405C47.9853 6.88049 48.042 6.85059 48.0993 6.82253L48.0999 6.82437Z" fill="#8F9700"/>
<path d="M42.2076 11.218C42.1907 11.3143 42.1775 11.4092 42.1661 11.5035C42.1631 11.5251 42.1608 11.5485 42.1584 11.572C42.1471 11.6724 42.1401 11.7734 42.1376 11.8749C42.1371 11.8916 42.1365 11.9082 42.136 11.9248C42.1329 12.0429 42.1342 12.1616 42.143 12.2777C42.1512 12.4166 42.1657 12.5554 42.1896 12.6909C42.2341 12.9343 42.3122 13.1661 42.4153 13.3851C42.4374 13.4308 42.4595 13.4766 42.4854 13.521C42.4892 13.532 42.4967 13.5418 42.5024 13.5521C42.5466 13.6313 42.5945 13.7092 42.6474 13.7833C42.6549 13.793 42.6606 13.8034 42.6682 13.8131C42.7569 13.9364 42.8563 14.054 42.9625 14.1611C42.9688 14.1671 42.975 14.1732 42.982 14.181C43.0542 14.2505 43.1302 14.3187 43.2098 14.3794C43.6221 14.6989 44.1242 14.8907 44.6646 14.8967C44.7127 14.8965 44.7608 14.8963 44.8101 14.8936C44.8139 14.8923 44.8201 14.8922 44.8245 14.8927C44.9207 14.8861 45.0175 14.8752 45.1161 14.8575C45.1672 14.848 45.219 14.8404 45.2733 14.8277C45.337 14.8119 45.3893 14.7876 45.436 14.7591C45.8342 14.6993 46.2415 14.5747 46.6385 14.4024C49.3296 13.2449 52.3467 10.6024 51.243 7.38372C50.733 5.89851 49.3356 4.80267 47.702 4.91219C47.6607 4.91414 47.6214 4.92159 47.5808 4.92537C46.2334 5.05699 45.1253 5.86783 44.3032 6.88776C44.1158 7.12105 43.941 7.36643 43.7844 7.6158C43.2103 8.52317 42.5931 9.65087 42.3059 10.7938C42.2753 10.9112 42.2491 11.0291 42.2272 11.1476C42.223 11.1716 42.2175 11.1982 42.2133 11.2222L42.2076 11.218ZM48.0981 6.82502C48.0408 6.85308 47.9841 6.88297 47.9287 6.91653C47.8947 6.87898 47.8595 6.84392 47.8225 6.8095C47.9181 6.80723 48.0118 6.81175 48.0987 6.82685L48.0981 6.82502Z" fill="#424600"/>
<path d="M37.5952 20.0717C37.545 20.0356 37.5136 20.0054 37.4954 19.9768C37.5136 20.0054 37.545 20.0356 37.5952 20.0717C37.6318 20.1289 37.6621 20.1861 37.6818 20.243C37.6621 20.1861 37.6318 20.1289 37.5952 20.0717Z" fill="#8F9700"/>
<path d="M38.1198 21.2725C38.0873 21.2632 38.0516 21.257 38.0191 21.2478C38.0535 21.2564 38.0891 21.2625 38.1198 21.2725Z" fill="#8F9700"/>
<path d="M37.2724 19.7562C37.2377 19.6922 37.2006 19.6455 37.1654 19.6104C37.2031 19.6467 37.2383 19.694 37.2724 19.7562Z" fill="#8F9700"/>
<path d="M42.8577 18.6752C42.7496 18.6777 42.6409 18.6783 42.5329 18.6808C42.6416 18.6802 42.7496 18.6777 42.8583 18.677L42.8577 18.6752Z" fill="#8F9700"/>
<path d="M37.4706 19.4514C37.4786 19.4322 37.4872 19.4148 37.4984 19.3986C37.4872 19.4148 37.4786 19.4322 37.4706 19.4514Z" fill="#8F9700"/>
<path d="M35.8265 22.1691C35.7216 22.3019 35.5776 22.364 35.428 22.4158C35.5776 22.364 35.7216 22.3019 35.8265 22.1691Z" fill="#8F9700"/>
<path d="M34.83 22.7276C34.9057 22.6316 34.9814 22.5355 35.0571 22.4395C35.1315 22.4487 35.2058 22.4578 35.2802 22.467C35.2058 22.4578 35.1315 22.4487 35.0571 22.4395C34.9814 22.5355 34.9057 22.6316 34.83 22.7276Z" fill="#8F9700"/>
<path d="M36.3564 21.7514C36.399 21.7716 36.4385 21.8011 36.4731 21.8404C36.5124 21.8268 36.5536 21.8188 36.5905 21.8224C36.5517 21.8194 36.513 21.8287 36.4731 21.8404C36.4385 21.8011 36.3996 21.7734 36.3564 21.7514Z" fill="#8F9700"/>
<path d="M38.0847 21.0197C38.1273 21.0398 38.1625 21.081 38.1854 21.1409C38.2159 21.0235 38.2465 20.9061 38.2777 20.7906C38.2472 20.908 38.2166 21.0254 38.1854 21.1409C38.1607 21.0817 38.1273 21.0398 38.0847 21.0197Z" fill="#8F9700"/>
<path d="M41.0116 18.7822C41.0894 18.8436 41.1871 18.8776 41.304 18.8947C41.2499 19.0531 41.1964 19.2133 41.1442 19.371C41.1983 19.2126 41.2518 19.0524 41.304 18.8947C41.1877 18.8794 41.0894 18.8436 41.0116 18.7822Z" fill="#8F9700"/>
<path d="M40.8458 18.5212L40.8489 18.5181L40.8458 18.5212Z" fill="#8F9700"/>
<path d="M42.1884 17.9579C42.2038 18.045 42.1943 18.1202 42.1621 18.1847C42.1943 18.1202 42.2013 18.0438 42.1884 17.9579Z" fill="#8F9700"/>
<path d="M42.1621 18.1847C42.13 18.2492 42.0753 18.3031 41.9981 18.3463C42.076 18.3049 42.1325 18.2504 42.1621 18.1847Z" fill="#8F9700"/>
<path d="M39.8867 19.1696C39.8632 19.1017 39.8391 19.032 39.7976 18.9848C39.8403 19.0295 39.8626 19.0999 39.8867 19.1696C39.9748 19.176 40.0469 19.2148 40.1127 19.2598C40.0462 19.2129 39.9748 19.176 39.8867 19.1696Z" fill="#8F9700"/>
<path d="M39.9715 19.9167C39.9924 19.9587 40.0288 20.0036 40.0841 20.0543C40.1701 20.0246 40.2449 19.9802 40.3208 19.9334C40.2467 19.9796 40.1695 20.0227 40.0841 20.0543C40.0288 20.0036 39.9936 19.9563 39.9715 19.9167Z" fill="#8F9700"/>
<path d="M41.4679 19.0474C41.4463 18.9851 41.4228 18.9233 41.3994 18.8616C41.421 18.924 41.4444 18.9857 41.4679 19.0474C41.4982 19.002 41.5407 18.9976 41.5914 19.0108C41.5432 18.9988 41.4982 19.002 41.4679 19.0474Z" fill="#8F9700"/>
<path d="M36.7553 20.4651C36.7193 20.4036 36.6965 20.3438 36.6875 20.2873C36.6972 20.3456 36.7193 20.4036 36.7553 20.4651C36.9344 20.438 37.1243 20.5448 37.188 20.644C37.1243 20.5448 36.9357 20.4356 36.7553 20.4651Z" fill="#8F9700"/>
<path d="M50.4752 5.93436C50.5708 6.04711 50.635 6.1358 50.6667 6.21521C50.635 6.1358 50.5702 6.04527 50.4752 5.93436Z" fill="#8F9700"/>
<path d="M49.7817 2.67226C49.7243 2.70031 49.6744 2.71348 49.6326 2.71359C49.6744 2.71348 49.7243 2.70031 49.7817 2.67226Z" fill="#8F9700"/>
<path d="M49.1775 4.68486C49.2075 4.6745 49.2374 4.66414 49.2679 4.65561C49.238 4.66597 49.2081 4.67633 49.1775 4.68486Z" fill="#8F9700"/>
<path d="M50.2355 3.04512C50.2972 3.02376 50.3683 3.0053 50.4264 3.00368C50.3683 3.0053 50.2997 3.02494 50.2355 3.04512Z" fill="#8F9700"/>
<path d="M51.8338 9.82276C51.869 9.86397 51.944 9.87497 52.0539 9.85953C52.1676 9.97627 52.2655 10.0595 52.3508 10.106C52.2649 10.0576 52.1695 9.97563 52.0539 9.85953C51.944 9.87497 51.869 9.86397 51.8338 9.82276Z" fill="#8F9700"/>
<path d="M51.45 6.87453C51.4695 6.79177 51.4728 6.70437 51.4898 6.62042C51.4728 6.70437 51.4695 6.79177 51.45 6.87453C51.3864 6.89655 51.3241 6.92223 51.2605 6.94425C51.3241 6.92223 51.3864 6.89655 51.45 6.87453Z" fill="#8F9700"/>
<path d="M47.5777 4.92234C47.6899 4.88349 47.804 4.84399 47.9162 4.80514C47.9275 4.69853 47.9702 4.61598 48.0498 4.5617C47.9702 4.61598 47.9256 4.69918 47.9162 4.80514C47.804 4.84399 47.6899 4.88349 47.5777 4.92234Z" fill="#8F9700"/>
<path d="M51.8525 8.01899C51.8194 8.02633 51.7938 8.03108 51.7688 8.03151C51.7913 8.02989 51.8194 8.02633 51.8525 8.01899Z" fill="#8F9700"/>
<path d="M54.4567 7.288C54.4035 7.27355 54.3546 7.25348 54.3083 7.22845C54.3528 7.25413 54.4035 7.27355 54.4567 7.288Z" fill="#8F9700"/>
<path d="M53.8809 5.97554C53.8174 5.91944 53.7361 5.89009 53.6156 5.9174C53.7361 5.89009 53.8174 5.91944 53.8809 5.97554Z" fill="#8F9700"/>
<path d="M54.6517 6.40504C54.7267 6.41604 54.8017 6.42704 54.8749 6.43869C54.7998 6.42769 54.7248 6.41669 54.6517 6.40504C54.5195 6.34398 54.4184 6.36664 54.3651 6.43031C54.4184 6.36664 54.5195 6.34398 54.6517 6.40504Z" fill="#8F9700"/>
<path d="M44.2982 6.88539C44.2356 6.86802 44.1798 6.83393 44.145 6.7515C44.0178 6.79553 43.8887 6.84021 43.7615 6.88424C43.8887 6.84021 44.0178 6.79553 44.145 6.7515C44.1804 6.83576 44.2362 6.86986 44.2982 6.88539Z" fill="#8F9700"/>
<path d="M52.2736 8.93309C52.3372 8.91107 52.4021 8.88658 52.465 8.86273C52.5173 8.49338 53.0143 8.54935 53.1062 8.2156C53.104 8.27592 53.0993 8.33505 53.0934 8.39666C53.0975 8.3357 53.104 8.27592 53.1062 8.2156C53.0851 8.13662 53.0797 8.06045 53.138 7.993C53.169 8.05828 53.2037 8.12226 53.2328 8.18819C53.2037 8.12226 53.1715 8.05947 53.138 7.993C53.0948 7.86827 53.0523 7.74538 53.0091 7.62065C52.9299 7.8576 52.8186 8.06251 52.5307 8.09641C51.839 8.3975 51.8126 8.48469 52.2761 8.93428L52.2736 8.93309Z" fill="#8F9700"/>
<path d="M54.9877 7.28494C55.1087 7.25332 55.229 7.20141 55.3329 7.12641C55.3252 7.0921 55.3138 7.05908 55.298 7.02553C55.3094 7.05855 55.3233 7.09275 55.3329 7.12641C55.229 7.20141 55.1093 7.25515 54.9877 7.28494Z" fill="#8F9700"/>
<path d="M44.8239 14.8909C44.8239 14.8909 44.8139 14.8923 44.8095 14.8917C44.7602 14.8944 44.7127 14.8965 44.664 14.8949C44.6133 14.8939 44.5646 14.8923 44.5152 14.8889C44.622 14.9854 44.7549 15.0791 44.7618 15.1835C44.7964 15.6707 45.065 15.4544 45.2927 15.3859C45.1837 15.2223 45.1315 15.0473 45.1135 14.8563C45.0149 14.874 44.9182 14.8849 44.822 14.8915L44.8239 14.8909Z" fill="#8F9700"/>
<path d="M54.1066 7.02097C54.1439 7.09844 54.2073 7.1607 54.2844 7.20795C54.2073 7.1607 54.1439 7.09844 54.1066 7.02097C54.0376 6.97911 53.9706 6.95506 53.9087 6.94568C53.9725 6.95441 54.0376 6.97911 54.1066 7.02097Z" fill="#8F9700"/>
<path d="M28.3803 26.316C28.4674 26.2591 28.5495 26.1937 28.6411 26.1435C28.6444 26.0623 28.6495 25.9804 28.6541 25.8966C28.6508 25.9779 28.6437 26.0604 28.6411 26.1435C28.5495 26.1937 28.4674 26.2591 28.3803 26.316Z" fill="#8F9700"/>
<path d="M32.2284 17.7659C32.2029 17.8857 32.1942 18.0181 32.1517 18.1252C32.1942 18.0181 32.2029 17.8857 32.2284 17.7659Z" fill="#8F9700"/>
<path d="M36.1519 15.3211C36.2256 15.4312 36.2738 15.5706 36.3053 15.7281C36.1694 15.7711 36.0785 15.8293 36.0346 15.9081C36.0785 15.8293 36.1694 15.7711 36.3053 15.7281C36.2738 15.5706 36.2256 15.4312 36.1519 15.3211Z" fill="#8F9700"/>
<path d="M32.5296 16.0821L32.5271 16.0871L32.5302 16.0839L32.5296 16.0821Z" fill="#8F9700"/>
<path d="M36.0131 15.9731C36.018 15.9509 36.0253 15.9298 36.0352 15.91C36.0253 15.9298 36.018 15.9509 36.0131 15.9731Z" fill="#8F9700"/>
<path d="M31.5405 19.1913C31.5125 19.1106 31.4939 19.0205 31.4398 18.955C31.4964 19.0217 31.5144 19.11 31.5405 19.1913Z" fill="#8F9700"/>
<path d="M32.8159 15.6687C32.7859 15.6791 32.7529 15.6864 32.7217 15.6931C32.6216 15.6702 32.5264 15.6251 32.4287 15.585C32.5264 15.6251 32.6216 15.6702 32.7217 15.6931C32.7529 15.6864 32.7853 15.6772 32.8152 15.6669L32.8159 15.6687Z" fill="#8F9700"/>
<path d="M33.0841 17.0609C33.1141 17.0506 33.1459 17.0396 33.1751 17.0274C33.1452 17.0377 33.1134 17.0487 33.0841 17.0609Z" fill="#8F9700"/>
<path d="M33.7069 19.1808C33.7617 19.1393 33.8246 19.1093 33.8894 19.0786C33.824 19.1074 33.7617 19.1393 33.7069 19.1808Z" fill="#8F9700"/>
<path d="M30.6252 17.1645C30.6706 17.1385 30.7219 17.1474 30.7733 17.1687C30.7219 17.1474 30.67 17.1366 30.6252 17.1645C30.5648 17.0991 30.5016 17.0737 30.4341 17.0663C30.5016 17.0737 30.5655 17.1009 30.6252 17.1645Z" fill="#8F9700"/>
<path d="M31.8406 24.4999C31.8406 24.4999 31.8543 24.4972 31.863 24.4982C31.8414 24.4359 31.8199 24.3735 31.7983 24.3112C31.8199 24.3735 31.8414 24.4359 31.863 24.4982C31.8549 24.499 31.8487 24.4991 31.8406 24.4999Z" fill="#8F9700"/>
<path d="M31.8406 24.4999C31.8125 24.5034 31.7888 24.5075 31.7651 24.5116C31.7888 24.5075 31.8137 24.5009 31.8406 24.4999Z" fill="#8F9700"/>
<path d="M31.1577 25.2806C31.2251 25.2634 31.2905 25.2407 31.3534 25.2046C31.2905 25.2407 31.2251 25.2634 31.1577 25.2806Z" fill="#8F9700"/>
<path d="M51.6091 6.39015C51.6497 6.38023 51.689 6.37278 51.7271 6.37396C51.689 6.37278 51.6497 6.38023 51.6091 6.39015Z" fill="#8F9700"/>
<path d="M27.7631 27.1047C27.7345 27.1311 27.728 27.197 27.7352 27.2602C27.8558 27.2698 28.0127 27.2751 28.2269 27.2646L28.2307 27.2633C27.83 27.2315 27.7464 27.1413 27.7619 27.1072L27.7631 27.1047Z" fill="#8F9700"/>
<path d="M30.263 17.0803C30.2324 17.0889 30.2 17.098 30.1682 17.109C30.2 17.098 30.2318 17.087 30.263 17.0803Z" fill="#8F9700"/>
<path d="M30.7761 16.7897C30.7656 16.8077 30.7564 16.8294 30.7465 16.8493C30.7564 16.8294 30.7656 16.8077 30.7761 16.7897Z" fill="#8F9700"/>
<path d="M29.8328 19.2505C29.767 19.2178 29.7018 19.1869 29.6443 19.1781C29.7018 19.1869 29.767 19.2178 29.8328 19.2505Z" fill="#8F9700"/>
<path d="M30.7114 20.5423C30.702 20.5332 30.6932 20.526 30.6838 20.5169C30.1813 20.4813 29.6753 20.484 29.1707 20.521C29.1478 20.5577 29.1249 20.5944 29.0995 20.6299C28.9545 20.8403 28.8298 21.1094 28.4824 20.9955C28.4596 21.0383 28.4386 21.0805 28.415 21.1215C28.592 21.2636 28.8156 21.3588 28.9037 21.5891C28.9962 21.6023 29.0378 21.668 29.0682 21.7437C29.0783 21.7485 29.0901 21.7526 29.1008 21.7592C29.7059 21.4922 30.3117 21.227 30.9194 20.9674C31.0849 20.7375 30.8514 20.6622 30.7096 20.5429L30.7114 20.5423Z" fill="#8F9700"/>
<path d="M39.9816 15.6859C39.9513 15.7313 39.9429 15.8041 39.9276 15.8628C39.9436 15.8059 39.95 15.7338 39.9816 15.6859Z" fill="#8F9700"/>
<path d="M38.0395 9.65788C38.0289 9.6759 38.0228 9.69446 38.0179 9.71669C37.97 9.74151 37.9057 9.75554 37.8571 9.78468C37.9038 9.75619 37.9681 9.74216 38.0179 9.71669C38.0228 9.69446 38.0302 9.67342 38.0395 9.65788Z" fill="#8F9700"/>
<path d="M40.0503 8.06007C39.8752 8.12892 39.8211 8.07573 39.7982 7.99124C39.823 8.07508 39.8752 8.12892 40.0503 8.06007Z" fill="#8F9700"/>
<path d="M40.7784 8.22704C40.7395 8.18097 40.7178 8.11246 40.6937 8.04891C40.6812 8.04912 40.67 8.05301 40.6619 8.05991C40.6707 8.05484 40.6806 8.05344 40.6937 8.04891C40.7153 8.11127 40.7388 8.17914 40.7784 8.22704Z" fill="#8F9700"/>
<path d="M40.4895 6.60576C40.4263 6.58656 40.3674 6.56174 40.3204 6.52258C40.3674 6.56174 40.4269 6.58839 40.4895 6.60576Z" fill="#8F9700"/>
<path d="M33.6169 22.0733C33.6804 22.0328 33.7338 21.9753 33.7847 21.9166C33.7789 21.8878 33.7706 21.8578 33.7586 21.8291C33.7687 21.8584 33.7789 21.8878 33.7847 21.9166C33.7338 21.9753 33.6779 22.0316 33.6169 22.0733Z" fill="#8F9700"/>
<path d="M35.5459 17.9095C35.5889 17.8885 35.6313 17.8717 35.6725 17.8575C35.6313 17.8717 35.5889 17.8885 35.5459 17.9095C35.3322 18.0184 35.1167 18.1279 34.9037 18.2386C35.1173 18.1298 35.3329 18.0202 35.5459 17.9095Z" fill="#8F9700"/>
<path d="M38.0973 17.4494C38.0152 17.406 37.935 17.3618 37.8529 17.3245C37.935 17.3618 38.0152 17.406 38.0973 17.4494Z" fill="#8F9700"/>
<path d="M41.4023 6.95529C41.3213 6.98745 41.2414 7.01098 41.1646 7.00678C41.2414 7.01098 41.3213 6.98745 41.4023 6.95529Z" fill="#8F9700"/>
<path d="M38.6046 15.8894C38.5399 15.8235 38.4838 15.7402 38.4426 15.6333C38.2703 15.6559 38.098 15.6786 37.9264 15.7031C38.0987 15.6804 38.271 15.6578 38.4426 15.6333C38.4838 15.7402 38.5399 15.8235 38.6046 15.8894Z" fill="#8F9700"/>
<path d="M37.9852 14.9351C37.8774 15.1079 37.7475 15.2166 37.6041 15.2806C37.7475 15.2166 37.8774 15.1079 37.9852 14.9351Z" fill="#8F9700"/>
<path d="M37.8927 15.6059C37.9636 15.4417 38.048 15.3405 38.1446 15.2927C38.048 15.3405 37.9636 15.4417 37.8927 15.6059C37.7 15.6726 37.5073 15.7393 37.3159 15.8035C37.2964 15.7774 37.2756 15.7414 37.2567 15.711C37.2756 15.7414 37.2964 15.7774 37.3159 15.8035C37.2066 15.8023 37.0967 15.8239 36.9856 15.8418C37.0949 15.8245 37.2047 15.803 37.314 15.8041C37.5067 15.7374 37.6994 15.6707 37.8908 15.6065L37.8927 15.6059Z" fill="#8F9700"/>
<path d="M37.7862 15.8851C37.8296 15.8229 37.8748 15.76 37.9264 15.7031C37.9149 15.6701 37.9042 15.6389 37.8927 15.6059C37.9042 15.6389 37.9149 15.6701 37.9264 15.7031C37.8748 15.76 37.8308 15.8204 37.7862 15.8851Z" fill="#8F9700"/>
<path d="M39.6983 15.9688C39.7424 15.9269 39.7885 15.8904 39.8452 15.8728C39.7885 15.8904 39.7424 15.9269 39.6983 15.9688Z" fill="#8F9700"/>
<path d="M41.0632 15.0465C41.041 14.9823 41.0169 14.9188 40.9928 14.8552C41.015 14.9194 41.0391 14.983 41.0632 15.0465Z" fill="#8F9700"/>
<path d="M42.8784 18.7954C42.9107 18.8889 42.9827 18.9092 43.0639 18.9078C42.9827 18.9092 42.9126 18.8883 42.8784 18.7954Z" fill="#8F9700"/>
<path d="M43.5158 15.2574C43.4677 15.2576 43.4264 15.2534 43.392 15.2448C43.4264 15.2534 43.4677 15.2576 43.5158 15.2574Z" fill="#8F9700"/>
<path d="M50.3588 13.7369C50.4289 13.764 50.4896 13.7882 50.5435 13.8106C50.4896 13.7882 50.4289 13.764 50.3588 13.7369Z" fill="#8F9700"/>
<path d="M29.4437 19.3851C29.4606 19.2766 29.4946 19.2176 29.54 19.1916C29.4946 19.2176 29.4606 19.2766 29.4437 19.3851C29.4281 19.3946 29.4125 19.4041 29.397 19.4136C29.4125 19.4041 29.4281 19.3946 29.4437 19.3851Z" fill="#8F9700"/>
<path d="M52.1325 7.59957C52.1462 7.58457 52.1592 7.56774 52.1723 7.5509C52.1592 7.56774 52.1462 7.58457 52.1325 7.59957Z" fill="#8F9700"/>
<path d="M32.4883 22.4742C32.5769 22.4579 32.6692 22.4219 32.7608 22.384C32.6692 22.4219 32.5769 22.4579 32.4883 22.4742Z" fill="#8F9700"/>
<path d="M32.7985 23.7513C32.7411 23.7732 32.6838 23.7951 32.6258 23.8152C32.6838 23.7951 32.7418 23.775 32.7985 23.7513C32.7908 23.5958 32.7359 23.4977 32.658 23.4302C32.7352 23.4959 32.7901 23.594 32.7985 23.7513Z" fill="#8F9700"/>
<path d="M42.6784 15.6521C42.6127 15.5166 42.6233 15.3959 42.6639 15.2833C42.6233 15.3959 42.612 15.5148 42.6784 15.6521Z" fill="#8F9700"/>
<path d="M48.2064 16.2875C48.2233 16.2817 48.2401 16.2759 48.2551 16.2707C48.2382 16.2765 48.2214 16.2823 48.2064 16.2875C48.1111 16.2117 48.045 16.1298 47.8825 16.1203C47.6557 16.1064 47.558 15.9574 47.8157 15.7881C47.7731 15.7679 47.7317 15.7452 47.6892 15.7251C47.4946 15.7924 47.3001 15.8598 47.1055 15.9271C46.9809 16.3235 46.6393 16.3473 46.3274 16.3115C46.0811 16.2838 45.9646 16.1167 46.2327 15.9109C46.2303 15.8131 46.237 15.6691 46.0826 15.7677C45.78 15.9587 45.4158 16.0622 45.1995 16.3753C45.2103 16.4065 45.2248 16.4364 45.2356 16.4676C45.3625 16.4894 45.4895 16.5112 45.6477 16.5386C45.5883 16.7543 45.435 16.8258 45.266 16.8823C45.1302 17.0587 44.925 17.1133 44.7279 17.1794C44.7458 17.2431 44.7649 17.3043 44.7827 17.3679C44.8504 17.5273 44.8744 17.6813 44.7233 17.8137C44.5772 18.045 44.884 18.2839 44.8135 18.5158C44.8135 18.5158 44.8191 18.5138 44.8209 18.5132C45.1912 18.3604 45.5614 18.2076 45.931 18.0529C45.7683 18.0004 45.6007 17.9639 45.6696 17.7757C45.7477 17.5597 46.111 17.5079 46.3898 17.5264C46.5035 17.5343 46.6174 17.5606 46.7487 17.583C46.6574 17.3434 46.7299 17.0143 46.3281 16.9973C46.2793 16.9957 46.2255 16.8644 46.2878 16.8387C46.4381 16.7764 46.6059 16.7348 46.7676 16.724C46.9006 16.7149 47.0061 16.8078 46.9426 16.951C46.842 17.1809 46.9747 17.3281 47.1387 17.3966C47.1976 17.4214 47.2477 17.4451 47.2903 17.4715C47.3246 17.4555 47.3576 17.442 47.3919 17.426C47.4498 17.3998 47.5084 17.3754 47.5683 17.3485C47.5683 17.3485 47.5701 17.3479 47.572 17.3472C47.7022 17.2878 47.8343 17.2277 47.9639 17.1664C47.9311 17.1079 47.8983 17.0371 47.8659 16.9497C47.6858 16.4718 47.6023 16.5028 48.2052 16.29L48.2064 16.2875Z" fill="#8F9700"/>
<path d="M45.2355 16.7881C45.2361 16.681 45.2368 16.574 45.2374 16.467C45.2368 16.574 45.2361 16.681 45.2355 16.7881Z" fill="#8F9700"/>
<path d="M31.1959 22.0384C31.2254 22.0692 31.2506 22.1057 31.2696 22.1546C31.4331 22.3424 31.7018 22.2351 31.8874 22.3598C31.9516 22.3396 32.0165 22.3212 32.0807 22.3011C32.3253 22.2452 32.5238 22.0984 32.7298 21.9675C32.7483 21.9241 32.7668 21.8807 32.786 21.8392C32.8162 21.6541 32.7654 21.5197 32.678 21.4062C32.1831 21.6165 31.6901 21.8262 31.1959 22.0384Z" fill="#8F9700"/>
<path d="M40.437 13.8789C40.3621 13.9048 40.2867 13.935 40.2106 13.9572C40.2873 13.9368 40.3603 13.9054 40.437 13.8789Z" fill="#8F9700"/>
<path d="M24.8005 19.1335C24.7732 19.1574 24.7483 19.1824 24.7247 19.2111C24.6794 19.2556 24.634 19.3 24.5893 19.3402C24.634 19.3 24.6787 19.2537 24.7247 19.2111C24.7483 19.1824 24.775 19.1567 24.8005 19.1335Z" fill="#8F9700"/>
<path d="M28.4521 22.0454C28.3738 22.0129 28.3076 22.0153 28.2783 22.124C28.3362 22.0978 28.3942 22.0716 28.4521 22.0454Z" fill="#8F9700"/>
<path d="M5.61676 34.5636C6.12684 35.8495 7.42943 36.3024 8.82539 36.1355C8.99208 36.1147 9.16248 36.0866 9.33156 36.0486C11.551 35.5555 13.7333 34.683 15.8181 33.795C16.0879 33.6789 16.3578 33.5629 16.6264 33.4433C17.1642 33.2057 17.6988 32.959 18.2297 32.7075C19.5575 32.0774 20.8669 31.4063 22.1631 30.7091C22.6471 30.4491 23.1273 30.1843 23.6068 29.9177C23.7719 29.8256 23.9369 29.7336 24.1001 29.6422C24.414 29.4657 24.726 29.2899 25.0392 29.1117C25.2335 29.0013 25.4297 28.8902 25.6233 28.778C25.9011 28.6182 26.1788 28.4584 26.4559 28.2967C26.6621 28.1781 26.8675 28.0577 27.0737 27.9391C27.0602 27.8821 27.0462 27.8233 27.0327 27.7663C27.0111 27.704 26.9889 27.6398 26.9673 27.5774C26.8409 27.5329 26.7144 27.4883 26.5886 27.4456C26.4822 27.4105 26.3367 27.4137 26.3894 27.2331C26.4335 27.0823 26.5244 27.018 26.6913 27.0403C27.2759 27.1194 27.6123 26.6085 28.0949 26.4415C28.0841 26.4103 28.0733 26.3791 28.0619 26.3461C27.7367 26.2902 27.434 26.1177 27.0754 26.2377C26.9501 26.2811 26.7187 26.2421 26.9148 25.9975C26.9458 25.9601 27.0055 25.9025 26.996 25.8811C26.5695 25.0243 27.4156 25.399 27.6732 25.2112C27.7603 25.1482 27.9131 25.1056 27.9814 25.2483C28.0528 25.3941 27.966 25.5063 27.8289 25.5702C27.6955 25.6328 27.5552 25.6813 27.362 25.7585C27.7746 25.8006 28.0956 25.7839 28.2816 25.4196C28.3676 24.9298 28.6678 24.5444 28.9241 24.1353C29.0837 24.0759 29.2688 23.981 29.413 24.0708C29.8424 24.3371 30.2153 24.1012 30.6069 23.98L30.6537 23.9638L30.7005 23.9476C30.9073 23.8493 31.1047 23.8385 31.3158 23.9523C31.4656 24.034 31.6487 24.1575 31.7691 23.894C31.4925 23.8213 31.3819 23.7014 31.6336 23.4603C31.728 23.3701 31.8225 23.2737 31.8292 23.1296C31.5651 22.9355 31.4942 22.4466 30.9784 22.5841C31.0818 22.7557 31.439 22.6197 31.3661 22.8812C31.2999 23.1136 31.0652 23.0346 30.8893 22.9743C30.654 22.8935 30.4185 23.012 30.1865 22.9711C29.9789 22.9342 29.728 22.9902 29.6291 22.7225C28.746 23.1124 27.8667 23.5071 26.9925 23.9104C27.1204 24.1106 26.8109 24.1725 26.828 24.3309C26.8206 24.4547 26.7493 24.5451 26.6604 24.6272C26.5199 24.7539 26.3452 24.915 26.1931 24.7356C26.0698 24.5913 26.2908 24.4553 26.3986 24.4036C26.5575 24.3301 26.5893 24.2102 26.6092 24.0862C26.2684 24.2453 25.9276 24.4044 25.5874 24.5653C20.0961 27.1707 14.8292 30.2304 9.82872 33.6725C9.235 34.0814 8.6096 33.1763 9.20208 32.7699C11.2166 31.3824 13.2752 30.0618 15.3729 28.8057C14.6107 28.9155 13.857 29.0799 13.1111 29.3093C12.4238 29.5205 12.0626 28.483 12.7523 28.273C14.1936 27.8315 15.6735 27.5863 17.1777 27.5565C17.2733 27.5542 17.3552 27.5731 17.4272 27.6057C19.4088 26.474 21.4232 25.4008 23.4704 24.3861C22.2462 24.4258 21.028 24.5435 19.8152 24.7435C19.1056 24.8597 19.0463 23.7628 19.7498 23.6467C21.5118 23.3572 23.2816 23.2354 25.0617 23.2827C25.2204 23.2873 25.3457 23.3467 25.4386 23.4336C25.8474 23.2408 26.2574 23.0516 26.6674 22.8624C26.5866 22.8226 26.5089 22.7858 26.549 22.6898C26.6267 22.5027 26.8431 22.5592 27.0063 22.5828C27.4096 22.6404 27.239 22.1839 27.4709 22.0913C27.4632 21.9543 27.739 21.8794 27.565 21.7095C27.151 21.3065 27.4192 21.2341 27.8114 21.2114C27.877 21.2071 27.9399 21.1771 28.0055 21.1606C27.995 20.9671 28.0353 20.7991 28.1276 20.6541C27.8985 20.6944 27.6689 20.739 27.4412 20.7952C27.302 20.829 27.1776 20.8145 27.0712 20.7672C27.0651 20.8042 27.056 20.8443 27.0393 20.8871C26.9192 21.1936 26.9165 21.6033 26.3027 21.6576C26.5834 21.809 26.7817 21.7404 26.916 21.965C26.4698 22.0373 26.1099 22.4803 25.6217 22.0926C25.5425 22.118 25.4638 22.1267 25.396 22.0639C24.9871 22.0083 25.1277 21.67 25.0689 21.4336C24.717 21.4034 24.4674 21.0092 24.0256 21.2155C23.8599 21.2934 23.9077 21.014 23.905 20.8793C23.6231 20.8393 23.5845 20.6431 23.5715 20.3272C23.7936 20.5091 23.9231 20.6471 23.905 20.8793C24.0197 20.8293 24.1683 20.6957 24.0854 20.632C23.7767 20.3876 23.9278 19.9286 23.6086 19.7084C23.4292 19.5713 23.3627 19.851 23.2125 19.8167C23.3052 19.189 23.3918 19.1426 24.125 19.3181C24.3166 19.2908 24.3688 19.133 24.4393 18.9915C24.4675 18.7825 24.4963 18.5754 24.5353 18.2948C24.9922 18.8823 25.3426 18.533 25.6983 18.2414C25.8764 18.2599 26.0381 18.3518 26.0385 18.5222C26.0383 18.7215 25.8103 18.7162 25.6694 18.7814C25.6058 18.8034 25.5404 18.8261 25.4768 18.8481C25.2975 19.0806 25.2406 19.4125 24.8103 19.4218C24.5997 19.4249 24.3604 19.6351 24.6112 19.918C24.759 20.0846 24.6334 20.3088 24.7393 20.4816C24.9823 20.4817 25.1978 20.1237 25.3861 20.2926C25.6034 20.4906 25.1466 20.6898 25.2273 20.9474C25.4081 20.8705 25.5128 20.7192 25.6263 20.569C25.6896 20.4854 25.7462 20.3344 25.8972 20.4136C26.0695 20.5059 25.9859 20.6396 25.9204 20.7588C25.856 20.8756 25.7817 20.9876 25.7105 21.1026C25.8999 21.2322 25.9858 21.0628 26.0971 20.9668C26.1277 20.8494 26.1601 20.7313 26.1907 20.6139C26.139 20.3134 26.2951 20.1772 26.5655 20.2685C26.6156 20.2861 26.6675 20.303 26.7182 20.3224C26.6688 20.0828 26.7661 19.8314 27.0811 19.7552C27.6202 19.6241 28.1613 19.5292 28.7038 19.4687C28.9123 19.3144 29.2199 19.2531 29.4145 19.0892C29.5457 18.978 29.7587 18.9577 29.9345 18.8969C29.9123 18.8327 29.8907 18.7703 29.8685 18.7061C29.662 18.5331 29.4038 18.7314 29.1883 18.6232C28.974 18.5186 29.1747 18.1 28.7988 18.1212C28.8341 18.2959 28.8331 18.4565 28.5882 18.457C28.4121 18.4564 28.3702 18.5654 28.3485 18.7023C28.4558 18.6795 28.5588 18.6747 28.5834 18.812C28.5957 18.8899 28.5491 18.943 28.466 18.9328C28.3197 18.9156 28.3453 18.802 28.3485 18.7023C28.1027 18.7669 27.8561 18.805 27.6059 18.7478C27.4807 18.8096 27.3069 18.7979 27.2542 18.9723C27.4291 18.9754 27.3292 19.1948 27.4969 19.2436C27.7841 19.329 27.6113 19.4957 27.4691 19.5264C26.8126 19.6633 26.3353 20.3358 25.56 20.1051C25.5593 19.5405 26.2128 19.7641 26.4448 19.4661C26.4553 19.3392 26.512 19.1943 26.3828 19.1055C25.9834 18.835 26.2911 18.786 26.5099 18.7041C26.7134 18.6686 26.9193 18.6342 27.1228 18.5987C27.0267 18.7388 26.9301 18.877 26.834 19.0171C26.9301 18.877 27.0267 18.7388 27.1228 18.5987C27.3868 18.3204 27.5943 18.0123 27.7228 17.6454C27.8237 17.3558 28.0289 17.1923 28.3426 17.4267C28.5434 17.3654 28.7474 17.3071 28.892 17.1379C29.176 16.7603 29.3374 17.2508 29.5709 17.2234L29.6196 17.2065L29.6682 17.1897C29.8392 17.1633 30.0084 17.1377 30.1788 17.1095C30.3841 16.8371 30.0981 16.7554 29.9579 16.5923C30.2116 16.4901 30.4446 16.3828 30.6891 16.3022C30.9029 16.2303 30.9354 16.1061 30.8612 15.9222C30.7214 15.9357 30.5809 15.9474 30.441 15.9609C29.7955 15.9235 29.3481 16.3618 28.8261 16.6267C28.697 16.6714 28.5679 16.7161 28.4407 16.7601C28.3841 16.7962 28.3261 16.8285 28.2726 16.8676C28.1102 16.9854 27.8582 17.1651 27.7531 17.0248C27.6014 16.8226 27.8077 16.6136 28.0156 16.4821C28.2744 16.2857 28.5313 16.0899 28.7901 15.8935C29.0588 15.5684 29.3788 15.8089 29.6557 15.8404C29.9132 15.8704 30.1419 15.8775 30.3744 15.7744C30.4829 15.7369 30.5901 15.6956 30.698 15.6624C31.0947 15.5436 30.9054 15.7775 30.86 15.9247C31.0475 15.831 31.2318 15.8247 31.408 15.9466C31.429 15.9044 31.4494 15.8603 31.4723 15.8175C31.3452 15.6622 30.8548 15.5588 31.4051 15.3088C31.4731 14.8518 31.9366 14.7201 32.1772 14.4047C32.1664 14.3735 32.1581 14.3435 32.1455 14.313C31.9905 13.7443 32.1751 13.4729 32.775 13.4932C32.9762 13.4996 33.2604 13.0438 33.3982 13.5569C33.163 13.6218 33.0887 13.7277 33.3033 13.906C33.6412 13.7685 33.9193 13.7852 34.0495 14.1797C34.3992 14.1429 34.7676 14.0092 35.0303 14.3866C35.0926 14.4759 35.2172 14.4061 35.3132 14.3811C35.3772 14.3117 35.3655 14.2356 35.3401 14.1561C35.2313 14.1322 35.0706 14.122 35.1797 13.959C35.2844 13.8016 35.4018 13.9108 35.5035 13.9927C35.6122 13.9921 35.7202 13.9896 35.8289 13.9889C36.0822 13.9157 36.1867 14.0602 36.2453 14.2659C36.2943 14.5283 36.5735 14.6329 36.6697 14.8625C36.9097 14.7692 36.8505 15.0279 36.9848 15.1253C37.1646 14.8823 37.3071 14.5495 37.7101 14.679C37.7179 14.6168 37.7282 14.5557 37.7359 14.4934C37.7037 14.4184 37.6652 14.3495 37.5702 14.3413C37.2693 14.162 37.3382 13.8527 37.3067 13.5801C37.1242 13.5734 36.943 13.5643 36.7605 13.5576C36.6315 13.7234 37.1165 13.7569 36.8494 13.9294C36.687 14.0349 36.5225 13.8988 36.3927 13.8082C36.2202 13.6851 36.17 13.5279 36.2486 13.2952C36.3095 13.1139 36.6879 13.0877 36.4952 12.8032C36.3967 12.7305 36.3007 12.6589 36.2022 12.5862C36.0642 12.7079 35.9427 12.8773 35.7196 12.7533C35.5666 12.5413 35.2573 12.7551 35.1024 12.5438C34.7812 12.6262 34.4955 12.8114 34.1232 12.7164C33.8498 12.6467 33.8512 13.0139 33.6858 13.141C33.5779 13.1742 33.4708 13.2339 33.3616 13.1485C33.2605 13.0561 33.0772 13.2469 33.0043 13.0544C33.3094 12.8646 33.5268 12.6332 33.5446 12.2429C33.5513 12.1051 33.6572 11.824 33.8161 11.8716C34.0965 11.9554 34.3822 11.8791 34.6407 11.9662C34.7377 11.9984 34.6641 12.1368 34.5601 12.1934C34.4013 12.2791 34.1963 12.2679 34.0548 12.4402C34.2724 12.5908 34.4471 12.4235 34.6305 12.3847C34.7884 12.3505 34.9557 12.2228 35.0688 12.4466C35.3377 12.3884 35.6073 12.332 35.8762 12.2739C36.0456 12.2851 36.2176 12.3221 36.3805 12.2965C36.4872 12.278 36.699 12.2725 36.532 12.014C36.3959 11.8023 36.7502 11.7125 36.8135 11.5263C36.8345 11.4841 36.8549 11.44 36.8759 11.3979C36.8338 11.2399 36.7309 11.0455 37.0618 11.124C37.1969 11.1573 37.1802 11.0604 37.1641 10.9777C37.1088 10.927 37.0542 10.8781 36.9989 10.8274C36.7838 10.9018 36.5693 10.9658 36.3536 10.833C36.146 10.9049 35.936 11.0064 35.7403 10.7496C35.9662 10.7001 36.1746 10.6547 36.383 10.6093C36.3484 10.4548 36.1835 10.4688 36.09 10.3923C35.9064 10.4065 35.8082 10.1591 35.6038 10.2402C35.4933 10.2599 35.3372 10.39 35.2879 10.2899C35.2664 10.246 35.2631 10.2061 35.2735 10.1696C35.0207 10.2017 34.7678 10.2276 34.5137 10.2499C34.2595 10.2721 34.006 10.29 33.7512 10.3043L33.7474 10.3056C33.4945 10.3192 33.2409 10.331 32.9867 10.3409C32.983 10.3422 32.9805 10.341 32.9761 10.3405C32.7237 10.3498 32.472 10.3548 32.2203 10.3598C32.214 10.3599 32.2059 10.3606 32.1996 10.3607C31.9517 10.3644 31.7018 10.3687 31.4525 10.3688C31.4382 10.3696 31.4232 10.3687 31.4088 10.3695C31.1745 10.3705 30.9403 10.3715 30.706 10.3725C30.1787 10.3742 29.6508 10.3742 29.1236 10.3821C29.1844 10.4247 29.2633 10.4467 29.3713 10.4442C29.4644 10.4408 29.6383 10.4771 29.5749 10.6511C29.5189 10.804 29.3747 10.7203 29.2655 10.7315C29.0401 10.752 29.01 10.3988 28.7575 10.4862C28.4519 10.5777 28.1576 10.4659 27.8618 10.4163C27.6782 10.4244 27.4927 10.4331 27.3085 10.4456C27.1151 10.4981 26.9224 10.5648 26.7421 10.4855C26.5728 10.4989 26.4049 10.516 26.2369 10.533C26.2026 10.5367 26.1701 10.5397 26.1358 10.5434C25.9641 10.5618 25.7912 10.5826 25.6195 10.6071C21.2728 11.2059 17.4501 13.5542 14.4575 16.6729C13.8743 17.2815 13.3249 17.9154 12.8063 18.5714C12.4595 19.0099 12.1278 19.4554 11.8061 19.9119C10.5206 21.7351 9.42509 23.6898 8.43602 25.6857C8.06473 26.4346 7.70784 27.1887 7.36158 27.9433C7.24306 28.2 7.12518 28.4585 7.00853 28.7146C6.65612 29.4877 6.30873 30.2632 5.98448 31.0451C5.93763 31.1578 5.89264 31.2699 5.84893 31.3857C5.82676 31.4427 5.80459 31.4997 5.78492 31.5578C5.74308 31.673 5.70375 31.7893 5.66629 31.9049C5.48087 32.4888 5.36865 33.0905 5.4264 33.699C5.43298 33.7604 5.43957 33.8218 5.4499 33.8819C5.47906 34.069 5.52064 34.2436 5.57465 34.4056C5.59306 34.4588 5.61148 34.512 5.63176 34.5646L5.61676 34.5636ZM29.3694 23.4306C29.3481 23.3025 29.3454 23.1678 29.4454 23.0633C29.5246 23.038 29.5966 23.0583 29.6195 23.1243C29.6645 23.2545 29.6609 23.3893 29.5302 23.4777C29.4742 23.5156 29.3842 23.5159 29.3694 23.4306ZM26.3468 24.974C26.4592 24.9598 26.5863 25.0185 26.6245 25.1347C26.6766 25.2912 26.5614 25.3701 26.4267 25.4167C26.3052 25.4588 26.2437 25.4082 26.2237 25.296C26.2793 25.1843 26.1302 25.0018 26.3468 24.974ZM25.7165 24.6418C25.7483 24.6307 25.814 24.6573 25.8386 24.6858C25.8826 24.7404 25.8842 24.8055 25.8126 24.8529C25.7434 24.8769 25.6753 24.8676 25.6455 24.7998C25.6164 24.7339 25.6535 24.6656 25.7184 24.6411L25.7165 24.6418ZM25.8384 24.9939C25.9363 24.9559 26.0524 24.9527 26.0732 25.0852C26.0997 25.2465 25.9505 25.2632 25.8451 25.2977C25.7285 25.336 25.6123 25.3392 25.5409 25.1996C25.5606 25.0264 25.7237 25.0377 25.8384 24.9939ZM25.104 24.9298C25.2032 24.9016 25.3187 24.8904 25.3525 25.0122C25.3767 25.1004 25.2977 25.1626 25.2148 25.1954C25.1176 25.2352 25.0196 25.2609 24.9559 25.1433C24.917 25.013 25.0011 24.9592 25.104 24.9298ZM24.9346 22.5585C25.1022 22.4799 25.2233 22.5695 25.2804 22.7284C25.3394 22.8867 25.3102 23.0323 25.1299 23.0865C24.9478 23.1413 24.8216 23.0248 24.7149 22.9283C24.6731 22.7168 24.7987 22.6199 24.9327 22.5591L24.9346 22.5585ZM24.5909 14.5947C24.6138 14.7819 24.5108 14.908 24.3394 14.9817C24.2771 15.0074 24.2129 15.0275 24.1499 15.0514C24.2648 15.1595 24.3754 15.2732 24.2088 15.4213C24.1684 15.4558 24.0473 15.4751 24.0341 15.455C23.9213 15.2866 23.9749 15.151 24.1506 15.0532C24.1359 15.0049 24.1175 14.9578 24.1091 14.9094C24.0716 14.6677 24.2348 14.5886 24.4269 14.5385C24.4943 14.5214 24.5836 14.5192 24.5922 14.5984L24.5909 14.5947ZM24.0947 13.5607C24.0888 13.2773 24.371 13.1426 24.6199 13.0749C24.8052 13.0231 25.0102 13.0466 25.2057 13.0365C25.2978 13.5264 24.8321 13.5972 24.5664 13.7857C24.4588 13.862 24.1005 13.8011 24.0966 13.5601L24.0947 13.5607ZM25.9635 17.1801C25.8077 17.2443 25.6691 17.2554 25.5666 16.9231C25.5622 16.9103 25.5504 16.8158 25.6845 16.7735C25.8616 16.7163 25.9617 16.848 26.0529 16.9602C26.1428 17.0688 26.0676 17.1359 25.9635 17.1801ZM25.7273 13.6899C25.7632 13.8603 25.7153 14.0063 25.5065 13.984C25.3759 13.9697 25.2087 14.1282 25.1045 13.924C25.1603 13.7342 25.2914 13.6107 25.4703 13.5406C25.6124 13.4852 25.7009 13.5593 25.7279 13.6917L25.7273 13.6899ZM26.6466 15.3169C26.565 15.3718 26.4636 15.3268 26.4506 15.2409C26.4273 15.0949 26.4414 14.9421 26.5803 14.8653C26.695 14.8153 26.7757 14.8428 26.8006 14.9328C26.8446 15.0901 26.781 15.2272 26.6466 15.3169ZM25.9479 13.8251C25.8292 13.706 25.9582 13.534 26.0795 13.4488C26.3869 13.2356 26.452 13.5869 26.7484 13.7411C26.3989 13.8025 26.1766 14.0561 25.9461 13.8257L25.9479 13.8251ZM27.3149 14.5186C27.2259 14.4611 27.2304 14.365 27.2913 14.3049C27.5454 14.0526 27.7223 14.4186 27.9608 14.3936C27.76 14.5637 27.5507 14.667 27.3149 14.5186ZM32.833 11.797C32.7519 11.8108 32.665 11.808 32.5831 11.8014C32.4425 11.7884 32.2298 11.8456 32.2218 11.641C32.2112 11.4289 32.4331 11.5616 32.5371 11.5051C32.5957 11.4746 32.6643 11.4611 32.7279 11.439L32.7292 11.4427C32.761 11.4317 32.7928 11.4145 32.8246 11.4097C32.9844 11.3934 33.0624 11.1405 33.2661 11.2569C33.2892 11.2694 33.2932 11.3111 33.3071 11.3392C33.0431 11.3874 33.0964 11.7531 32.8355 11.7982L32.833 11.797ZM30.4559 10.4488C30.6125 10.4049 30.7086 10.501 30.7027 10.6715C30.7001 10.7669 30.7528 10.8164 30.8318 10.863C30.9321 10.9228 31.143 10.7758 31.1387 11.0053C31.137 11.1394 31.0072 11.1823 30.8925 11.2261C30.6887 11.3028 30.5743 11.1842 30.4755 11.0439C30.4295 10.9776 30.4072 10.895 30.378 10.8229C30.3522 10.6819 30.222 10.5113 30.4559 10.4488ZM31.3531 12.7017C31.2079 12.7663 31.06 12.6963 31.0249 12.5647C30.972 12.3694 31.0165 12.1712 31.1882 12.0316C31.3811 12.008 31.4659 12.1019 31.5349 12.2587C31.6298 12.4785 31.5469 12.614 31.3543 12.6992L31.3531 12.7017ZM24.128 11.2302C24.4647 11.2348 24.8056 11.1846 25.1305 11.3063C25.1623 11.2953 25.1941 11.2843 25.2259 11.2733C25.4238 11.252 25.6262 11.2497 25.7708 11.0805C25.9421 10.8795 26.1783 10.8779 26.4126 10.883C26.5606 10.8872 26.7243 10.8881 26.7741 11.0742C26.8239 11.2665 26.679 11.2715 26.548 11.3168C26.404 11.3667 26.5121 11.4792 26.5207 11.5645C26.628 11.5356 26.7363 11.4735 26.8449 11.5571C27.363 11.3777 27.914 11.7046 28.4279 11.4404C28.4915 11.4184 28.557 11.3957 28.6206 11.3737C28.7478 11.3297 28.8763 11.2893 28.9997 11.2404C29.3487 11.0991 29.5294 11.2214 29.5588 11.5789C29.3146 11.8113 29.1513 12.0959 29.0387 12.406C28.9624 12.6152 28.9802 12.7939 29.243 12.857C29.351 12.8545 29.4579 12.8545 29.5659 12.852C29.8117 12.7875 30.0589 12.7512 30.3104 12.8059C30.3759 12.8017 30.4516 12.8145 30.5045 12.7859C30.6054 12.7325 30.7185 12.6173 30.8017 12.7549C30.9083 12.9296 30.726 12.9598 30.6139 13.0233C30.5479 13.0626 30.4977 13.1292 30.4393 13.1844C30.5775 13.3296 30.7373 13.301 30.9056 13.2366C31.1107 13.1574 31.3139 13.0788 31.5406 13.1708C31.6984 13.2333 31.9839 13.0173 32.0203 13.2615C32.0566 13.4995 31.7666 13.3637 31.6288 13.4135C31.38 13.5057 31.5241 13.6921 31.49 13.8354C31.4558 13.9787 31.4262 14.1656 31.2715 14.2027C31.103 14.2425 31.0795 14.0596 31.0283 13.9418L31.027 13.9381C30.9316 13.9712 30.8362 14.0042 30.7408 14.0372C30.362 14.0081 30.0164 13.9778 30.084 14.5542C30.1083 14.7697 29.7891 14.7734 29.6158 14.8539C29.345 15.4693 28.9528 15.1594 28.579 14.9992C28.4187 15.0444 28.2118 15.1366 28.163 14.9049C28.1175 14.6947 28.3339 14.7389 28.4723 14.691C28.7547 14.5932 29.0201 14.4521 29.2873 14.3164C29.4512 14.233 29.4405 14.1176 29.3168 14.0022C29.1878 14.0469 29.0599 14.0891 28.9302 14.132C28.8309 14.1294 28.7303 14.1231 28.6297 14.123C28.5022 14.124 28.3766 14.1059 28.3751 13.9564C28.3737 13.8131 28.4803 13.7701 28.619 13.7714C28.882 13.7748 29.0013 13.6657 28.893 13.4013C28.5119 12.8266 27.8825 12.6665 27.2723 12.4772C27.001 12.2199 27.363 12.1521 27.4277 11.9941C27.1783 11.8607 26.9045 12.05 26.6546 11.9454C26.0147 12.13 25.3982 12.1523 24.8429 11.7222C24.6208 11.3164 24.1749 11.5837 23.8729 11.4192C23.6878 11.3805 23.47 11.4231 23.3295 11.2108C23.6109 11.0436 23.8707 11.1344 24.1311 11.2209L24.128 11.2302ZM22.8055 13.6003C22.9126 13.5407 22.9347 13.4591 22.9103 13.3525C22.7438 13.3917 22.5403 13.5483 22.4261 13.3393C22.3428 13.1895 22.5372 13.1037 22.6492 13.0156C22.7493 12.9358 22.6566 12.8796 22.6181 12.8169C22.4485 12.7565 22.4284 12.632 22.5151 12.5013C22.6081 12.3643 22.7427 12.3054 22.9063 12.3967C23.2896 12.3482 23.9974 12.7893 23.9466 13.0903C23.9006 13.363 23.5547 13.2896 23.363 13.4074C23.2269 13.5407 23.4813 13.7977 23.2045 13.8874C23.1072 13.9211 23.0118 13.9541 22.9145 13.9878C22.9577 14.0098 23.0109 14.0243 23.0417 14.0588C23.1291 14.1538 23.0173 14.1576 22.973 14.1627C22.7314 14.1909 22.7025 13.9441 22.6 13.8296C22.4623 13.6739 22.7065 13.6531 22.8049 13.5985L22.8055 13.6003ZM21.8859 16.9587C21.8017 16.9817 21.7695 16.9189 21.7522 16.8509C21.7455 16.7649 21.7513 16.6787 21.8555 16.659C21.9285 16.6461 21.9863 16.6918 21.9973 16.7661C22.0115 16.8556 21.9795 16.9324 21.8859 16.9587ZM22.6886 14.9266C22.8008 14.8878 22.8903 14.9102 22.9347 15.0263C22.9752 15.1314 22.9733 15.2286 22.8423 15.2678C22.7319 15.2999 22.638 15.2584 22.5837 15.1622C22.5194 15.0489 22.5727 14.9729 22.6867 14.9273L22.6886 14.9266ZM21.5542 13.8219C21.6978 13.8071 21.8904 13.6131 21.9654 13.8542C22.0189 14.0267 21.8616 14.0503 21.7162 13.9815C21.6676 13.9983 21.5821 14.0115 21.5779 14.0356C21.4476 14.7667 20.9721 14.0768 20.7216 14.2971C20.9133 13.9555 21.2669 13.9542 21.5542 13.8219ZM19.6518 14.0265C19.7476 13.8434 19.9133 13.8744 20.1613 13.8707C20.0257 14.084 19.9516 14.2514 19.7324 14.1383C19.6941 14.1187 19.64 14.047 19.6511 14.0247L19.6518 14.0265ZM22.0886 22.7302C22.0927 22.6754 22.1373 22.6045 22.1853 22.5797C22.265 22.5377 22.3022 22.609 22.3182 22.6734C22.3368 22.7511 22.2864 22.7932 22.2203 22.8202C22.138 22.8426 22.0822 22.8023 22.0886 22.7302ZM14.5669 17.0192C14.7252 16.9439 14.7672 17.0834 14.8021 17.1904C14.8364 17.2895 14.9226 17.3993 14.7932 17.4975C14.6428 17.5229 14.5742 17.4336 14.533 17.3205C14.4974 17.2178 14.4174 17.0894 14.5669 17.0192Z" fill="#8F9700"/>
<path d="M36.9327 12.1731C37.1864 12.2948 37.2676 12.4084 37.0121 12.6386C36.83 12.8023 36.9463 12.9387 37.1509 12.8761C37.5139 12.7627 37.6441 12.9333 37.717 13.2285C37.7812 13.3111 37.8454 13.3936 37.9096 13.4762C38.0498 13.4276 38.1687 13.4563 38.2686 13.5634C38.4735 13.435 38.7875 13.5194 38.9134 13.2355C38.8731 13.0646 38.9607 12.9849 39.1206 12.9748C39.1574 12.9723 39.2283 13.0135 39.2322 13.0429C39.2548 13.1809 39.159 13.249 39.0437 13.2972C39.0936 13.5017 39.219 13.598 39.4366 13.6213C39.6866 13.6477 39.9312 13.7068 40.1776 13.753C40.3048 13.7151 40.3919 13.7548 40.4388 13.8782C40.7436 14.0808 40.7387 14.0969 40.2688 14.4218C40.5247 14.3743 40.7496 14.6005 41.033 14.4449C41.1613 14.3738 41.2042 14.5582 41.2516 14.6588C41.3238 14.6194 41.4249 14.5968 41.4645 14.5358C41.8895 13.8937 42.3238 13.9015 42.7348 14.5685C42.7242 14.6893 42.7304 14.7919 42.9006 14.7268C42.9846 14.6608 43.0686 14.5947 43.1525 14.5287C43.1679 14.4761 43.1863 14.4266 43.2092 14.3776C43.1295 14.3169 43.0541 14.2505 42.9813 14.1792C42.975 14.1732 42.9687 14.1671 42.9618 14.1592C42.8538 14.0529 42.7569 13.9364 42.6675 13.8113C42.6599 13.8016 42.6543 13.7912 42.6467 13.7815C42.5957 13.7067 42.5459 13.6295 42.5017 13.5503C42.496 13.5399 42.4904 13.5296 42.4847 13.5192C42.4607 13.4741 42.4367 13.429 42.4146 13.3833C42.3711 13.4332 42.3352 13.4929 42.3088 13.5678C42.267 13.6891 42.2022 13.8409 42.0322 13.8155C41.8665 13.7907 41.8836 13.6164 41.8274 13.5023C41.6726 13.4121 41.5011 13.4674 41.338 13.4622C40.9675 13.4508 40.7893 13.3235 40.984 12.9418C41.0044 12.8978 41.0254 12.8556 41.0457 12.8116C41.0349 12.7804 41.0242 12.7492 41.0134 12.718C40.6306 12.641 40.5764 12.4544 40.7795 12.1273C40.977 11.8083 41.0067 11.2948 41.6028 11.5404C41.6929 11.577 41.8112 11.6038 41.7969 11.732C41.7862 11.8281 41.6675 11.824 41.6103 11.8767C41.4947 11.9845 41.1441 11.8614 41.2654 12.2056C41.5127 12.2967 41.7618 12.3871 42.0091 12.4781C42.0373 12.3903 42.0838 12.3249 42.1379 12.2754C42.131 12.1586 42.1278 12.0406 42.1309 11.9224C42.1315 11.9058 42.132 11.8892 42.1325 11.8726C42.1357 11.7729 42.1427 11.6719 42.1533 11.5696C42.1557 11.5462 42.1587 11.5246 42.1611 11.5012C42.1724 11.4069 42.1869 11.3094 42.2026 11.2157C42.2068 11.1916 42.2104 11.1657 42.2165 11.141C42.2384 11.0225 42.2646 10.9046 42.2952 10.7872C42.2141 10.8193 42.1312 10.8522 42.047 10.869C41.8753 10.8997 41.6791 11.1134 41.5407 10.9374C41.4281 10.7936 41.6378 10.6491 41.7239 10.5105C41.7641 10.4452 41.796 10.3438 41.775 10.2771C41.6339 9.83297 41.9278 9.77436 42.2531 9.73981C42.668 9.41338 42.5696 9.02635 42.4012 8.63069C42.3395 8.65206 42.2803 8.67462 42.2192 8.69782C42.1347 9.00437 41.663 9.11834 41.7815 9.52717C41.7016 9.5384 41.6198 9.55027 41.5399 9.5615C41.6785 10.1071 41.622 10.1616 41.0435 10.064C40.8722 10.035 40.7653 10.1377 40.7093 10.2845C40.6545 10.4288 40.5837 10.6237 40.4126 10.5105C40.2156 10.3773 40.3685 10.2258 40.5122 10.1206C40.5937 10.0595 40.5895 9.98086 40.5709 9.89692C40.2744 9.82702 39.928 10.1031 39.6638 9.78779C39.584 9.81132 39.5053 9.82006 39.4382 9.7591C39.3631 9.7481 39.2881 9.7371 39.2131 9.7261C39.0732 9.7396 38.9352 9.75245 38.7953 9.76595C38.5608 9.82045 38.4087 10.1073 38.1188 10.0022C38.1032 10.0055 38.0876 10.0089 38.0727 10.0141C38.0876 10.0089 38.1026 10.0037 38.1188 10.0022C37.9916 10.2701 38.1201 10.3448 38.3751 10.3551C38.5175 10.3612 38.7155 10.3461 38.7155 10.5639C38.7158 10.7404 38.6179 10.8811 38.439 10.9513C38.2769 11.0156 38.139 11.0346 37.9598 10.9466C37.6184 10.7773 37.4565 10.9874 37.4033 11.2995C37.3845 11.4087 37.4776 11.5264 37.3883 11.6375C37.3709 11.551 37.3449 11.482 37.3103 11.4303C37.3449 11.482 37.3709 11.551 37.3883 11.6375C37.4268 12.0452 37.1398 11.9001 36.9362 11.8987C36.8924 11.7722 36.8492 11.6474 36.8054 11.5209C36.8492 11.6474 36.8924 11.7722 36.9362 11.8987C36.7518 11.9893 36.7642 12.0918 36.9327 12.1731ZM40.244 13.2308C40.2934 13.0042 40.4278 12.9023 40.6931 12.8638C40.6359 13.1404 40.5242 13.2715 40.244 13.2308ZM41.2057 13.7216C41.3336 13.6794 41.4945 13.636 41.5435 13.8019C41.5926 13.9677 41.3856 13.9264 41.3391 13.9979C41.1887 14.0233 41.0281 14.122 40.9789 13.9377C40.9419 13.8006 41.0973 13.7592 41.2076 13.721L41.2057 13.7216ZM40.1637 11.0259C39.9057 10.916 39.6682 11.1255 39.383 11.0763C39.7673 10.7461 39.8528 10.7391 40.1637 11.0259ZM40.4042 11.146C40.4739 11.0931 40.574 11.1221 40.6375 11.1844C40.7323 11.2768 40.6722 11.3634 40.6165 11.4505C40.3464 11.8746 39.9018 12.0121 39.2512 11.8573C39.5501 11.4683 40.0465 11.4136 40.4036 11.1441L40.4042 11.146ZM38.9625 11.0535C39.0316 11.0234 39.0981 11.0641 39.1209 11.1301C39.1482 11.209 39.0854 11.2513 39.0218 11.2794C38.9651 11.3032 38.8985 11.3468 38.8518 11.2664C38.8538 11.1753 38.879 11.0906 38.9625 11.0535ZM39.4031 12.2176C39.5086 12.1893 39.6573 12.0865 39.7075 12.2314C39.7513 12.358 39.8944 12.481 39.7947 12.6408C39.7068 12.7801 39.5589 12.8189 39.4565 12.7167C39.2951 12.559 39.1591 12.7047 38.9462 12.725C39.0728 12.4675 39.1686 12.2783 39.405 12.217L39.4031 12.2176Z" fill="#8F9700"/>
<path d="M36.085 10.3899C36.1284 10.3215 36.1806 10.2726 36.2391 10.2359C36.1806 10.2726 36.1284 10.3215 36.085 10.3899Z" fill="#8F9700"/>
<path d="M25.962 21.4962C25.8529 21.647 25.7187 21.7859 25.6747 21.9613C25.6543 22.0053 25.6314 22.0482 25.6111 22.0922C25.6314 22.0482 25.6543 22.0053 25.6747 21.9613C25.7187 21.7859 25.8522 21.6451 25.962 21.4962Z" fill="#8F9700"/>
<path d="M30.5454 25.3816C30.5906 25.5241 30.6756 25.6488 30.7569 25.7747C30.6756 25.6488 30.5906 25.5241 30.5454 25.3816Z" fill="#8F9700"/>
<path d="M50.7712 12.7438C50.8643 12.7403 50.9131 12.7543 50.9401 12.7778C50.9131 12.7543 50.8643 12.7403 50.7712 12.7438Z" fill="#8F9700"/>
<path d="M49.3034 15.3778C49.3241 15.383 49.3435 15.3907 49.3647 15.3977C49.3435 15.3907 49.3241 15.383 49.3034 15.3778Z" fill="#8F9700"/>
<path d="M49.9292 14.8921C50.0235 15.0012 50.1501 15.0827 50.3048 15.1421C50.4355 15.1688 50.5561 15.1722 50.6622 15.1519C50.558 15.1716 50.4374 15.1681 50.3048 15.1421C50.1501 15.0827 50.0235 15.0012 49.9292 14.8921Z" fill="#8F9700"/>
<path d="M49.3216 15.7269C49.4029 15.7562 49.4942 15.7719 49.5645 15.8174C49.5771 15.848 49.5929 15.8815 49.6155 15.9045C49.5929 15.8815 49.579 15.8473 49.5645 15.8174C49.4942 15.7719 49.4029 15.7562 49.3216 15.7269Z" fill="#8F9700"/>
<path d="M51.2552 11.9395C51.2596 12.0489 51.2425 12.1328 51.2067 12.1987C51.2407 12.1335 51.2602 12.0507 51.2552 11.9395Z" fill="#8F9700"/>
<path d="M46.2073 4.86676C46.1269 4.78573 46.0424 4.75337 45.9568 4.75424C46.0424 4.75337 46.1269 4.78573 46.2055 4.86741L46.2073 4.86676Z" fill="#8F9700"/>
<path d="M45.4611 4.59308C45.4111 4.5878 45.3667 4.57442 45.3254 4.55791C45.3667 4.57442 45.4111 4.5878 45.4611 4.59308Z" fill="#8F9700"/>
<path d="M44.0542 18.3678C44.0242 18.372 43.9962 18.3817 43.9688 18.3933C43.9968 18.3836 44.0249 18.3738 44.0542 18.3678Z" fill="#8F9700"/>
<path d="M43.6722 4.87136C43.6482 4.71739 43.563 4.55587 43.5521 4.40352C43.4867 4.42618 43.4231 4.4482 43.3595 4.47021C43.4231 4.4482 43.4885 4.42553 43.5521 4.40352C43.563 4.55587 43.6482 4.71739 43.6722 4.87136Z" fill="#8F9700"/>
<path d="M48.0567 13.9731C48.0212 13.9792 47.9843 13.9817 47.9543 13.9736C47.9843 13.9817 48.0218 13.9811 48.0567 13.9731C48.1434 13.9328 48.1836 13.8614 48.1637 13.7738C48.1836 13.8614 48.1434 13.9328 48.0567 13.9731Z" fill="#8F9700"/>
<path d="M44.8013 2.89888C44.4916 3.15398 44.2234 3.44403 43.9827 3.75944C44.2215 3.44468 44.4916 3.15398 44.8013 2.89888Z" fill="#8F9700"/>
<path d="M41.7233 5.81305C41.6461 5.86236 41.5714 5.91902 41.4923 5.96283C41.4427 5.91633 41.3881 5.8736 41.3299 5.85677C41.3881 5.8736 41.4427 5.91633 41.4923 5.96283C41.5714 5.91902 41.6461 5.86236 41.7233 5.81305Z" fill="#8F9700"/>
<path d="M41.8201 6.59499C41.8008 6.61193 41.7822 6.63071 41.7679 6.65002C41.7841 6.63006 41.8008 6.61193 41.8201 6.59499Z" fill="#8F9700"/>
<path d="M43.4528 15.384C43.4744 15.4463 43.496 15.5087 43.5176 15.5711C43.5406 15.5528 43.5624 15.5432 43.583 15.5361C43.5624 15.5432 43.5412 15.5547 43.5176 15.5711C43.496 15.5087 43.4744 15.4463 43.4528 15.384Z" fill="#8F9700"/>
<path d="M44.0194 17.9526C44.0302 17.9838 44.041 18.015 44.0518 18.0462C44.0799 18.0426 44.1092 18.0365 44.1367 18.0312C44.1067 18.0354 44.0792 18.0408 44.0518 18.0462C44.041 18.015 44.0302 17.9838 44.0194 17.9526Z" fill="#8F9700"/>
<path d="M43.5646 15.1501C43.5681 15.1119 43.5611 15.0733 43.5515 15.0335C43.598 14.9804 43.6409 14.9409 43.6833 14.918C43.6415 14.9428 43.598 14.9804 43.5515 15.0335C43.5629 15.0727 43.5681 15.1119 43.5646 15.1501Z" fill="#8F9700"/>
</g>
<defs>
<clipPath id="clip0_404_21243">
<rect width="56.0769" height="19.9384" fill="white" transform="translate(59.5139 18.8415) rotate(160.906)"/>
</clipPath>
</defs>
</svg>
